<svg xmlns="http://www.w3.org/2000/svg" viewBox="0 0 173.105 65.516854" width="173.105" height="65.517">
    <path d="m 59.215,65.498426 h 103.89 a 9.7,9.7 0 0 0 10,-9.43 V 9.4484258 a 9.7,9.7 0 0 0 -10,-9.43000007 H 59.215" fill="#006495"/>
    <path d="M 112.675,65.018426 H 10.305 a 9.56,9.56 0 0 1 -9.81,-9.29 V 9.7884258 a 9.56,9.56 0 0 1 9.81,-9.29000007 h 102.36" fill="none" stroke="#006495" stroke-width=".99"/>
    <path d="M40.785 39.698426h-21.3l-.77 2.55h5.68l1.08 3.51h9.33l1.08-3.51h5.68zM23.015 25.408426a5 5 0 0 0 1.12 7l5.1 3.7a1.26 1.26 0 0 1 .28 1.76l.77.56 2.69-3.72a5 5 0 0 0 1-2.94 5.06 5.06 0 0 0-.07-.8 5 5 0 0 0-2-3.28l-5.1-3.71a1.26 1.26 0 0 1-.51-.82 1.77 1.77 0 0 1 0-.2 1.23 1.23 0 0 1 .24-.73v0l-.77-.56-2.69 3.72m2.94-14.87a7.25 7.25 0 0 0-1.39 4.27 7.5 7.5 0 0 0 .09 1.16 7.26 7.26 0 0 0 2.93 4.76l6.41 4.64a3.89 3.89 0 0 1 1.57 2.55 4 4 0 0 1 0 .62 3.88 3.88 0 0 1-.75 2.29v0l.61.45 5-7a7.3 7.3 0 0 0-1.47-10.15l-7.74-5.6200002a2.26 2.26 0 0 1-.5-3.15l-.61-.44zm-13.06 37.37h5.84a4.55 4.55 0 0 1 3.29 1.11 2.89 2.89 0 0 1 .86 2.14v0a2.93 2.93 0 0 1-1.65 2.71 3.07 3.07 0 0 1 2.35 3.09v0c0 2.3-1.87 3.45-4.7 3.45h-6zm5.24 5.08c1.22 0 2-.4 2-1.33v0c0-.83-.65-1.29-1.81-1.29h-2.73v2.66zm.74 5.06c1.22 0 2-.43 2-1.36v0c0-.84-.63-1.36-2-1.36h-3.2v2.76zm5.9-10.14h5.83a4.54 4.54 0 0 1 3.29 1.11 2.89 2.89 0 0 1 .86 2.14v0a2.92 2.92 0 0 1-1.65 2.71 3.07 3.07 0 0 1 2.35 3.09v0c0 2.3-1.87 3.45-4.7 3.45h-6zm5.24 5.08c1.22 0 2-.4 2-1.33v0c0-.83-.65-1.29-1.81-1.29h-2.73v2.66zm.74 5.06c1.22 0 2-.43 2-1.36v0c0-.84-.63-1.36-2-1.36h-3.2v2.76zm5.91-10.14h5.83a4.56 4.56 0 0 1 3.29 1.11 2.89 2.89 0 0 1 .86 2.14v0a2.92 2.92 0 0 1-1.65 2.71 3.07 3.07 0 0 1 2.35 3.09v0c0 2.3-1.87 3.45-4.7 3.45h-6zm5.24 5.08c1.22 0 2-.4 2-1.33v0c0-.83-.65-1.29-1.81-1.29h-2.73v2.66zm.74 5.06c1.22 0 2-.43 2-1.36v0c0-.84-.63-1.36-2-1.36h-3.2v2.76z" fill="#006495"/>
    <path d="m 78.015,30.938426 -1,-2.45 h -4.62 l -1,2.45 h -2.38 l 4.68,-11 h 2.22 l 4.68,11 z m -3.31,-8.11 -1.45,3.54 h 2.9 z m 14.58,7.16 c -0.3089,0.2437 -0.6444,0.4517 -1,0.62 -0.3762,0.1771 -0.7724,0.308 -1.18,0.39 -0.4743,0.092 -0.9568,0.1357 -1.44,0.13 -0.7654,0.01 -1.5241,-0.144 -2.23,-0.44 -1.3491,-0.5591 -2.4137,-1.6417 -2.95,-3 -0.2829,-0.6987 -0.4256,-1.4462 -0.42,-2.2 v 0 c -0.01,-0.7505 0.1372,-1.4948 0.42,-2.19 0.2723,-0.6658 0.6694,-1.2734 1.17,-1.79 0.5085,-0.523 1.1173,-0.9379 1.79,-1.22 0.7322,-0.3018 1.5181,-0.4515 2.31,-0.44 0.4698,0 0.9387,0.041 1.4,0.13 0.394,0.074 0.7793,0.1876 1.15,0.34 0.3523,0.1383 0.6878,0.3161 1,0.53 0.2885,0.2073 0.5594,0.4381 0.81,0.69 l -1.53,1.76 c -0.3898,-0.3584 -0.8273,-0.6613 -1.3,-0.9 -0.4643,-0.2242 -0.9744,-0.3372 -1.49,-0.33 -0.869,-0.013 -1.7007,0.3522 -2.28,1 -0.2855,0.3157 -0.5093,0.682 -0.66,1.08 -0.1568,0.4222 -0.2348,0.8696 -0.23,1.32 v 0 c 0,0.4536 0.073,0.9043 0.23,1.33 0.1478,0.4002 0.3682,0.7697 0.65,1.09 0.5816,0.6505 1.4176,1.0156 2.29,1 0.5466,0.018 1.0891,-0.099 1.58,-0.34 0.469,-0.256 0.9027,-0.572 1.29,-0.94 l 1.53,1.54 c -0.2808,0.3035 -0.585,0.5844 -0.91,0.84 z m 10.63,0 c -0.3089,0.2437 -0.6444,0.4517 -1,0.62 -0.3762,0.1771 -0.7724,0.308 -1.18,0.39 -0.4743,0.092 -0.9568,0.1357 -1.44,0.13 -0.7654,0.01 -1.5241,-0.144 -2.23,-0.44 -1.3498,-0.5581 -2.4147,-1.641 -2.95,-3 -0.2826,-0.6988 -0.4253,-1.4462 -0.42,-2.2 v 0 c -0.01,-0.7505 0.1374,-1.4947 0.42,-2.19 0.2723,-0.6658 0.6694,-1.2734 1.17,-1.79 0.5087,-0.5228 1.1174,-0.9377 1.79,-1.22 0.7322,-0.3018 1.5181,-0.4515 2.31,-0.44 0.4698,0 0.9387,0.041 1.4,0.13 0.394,0.074 0.7793,0.1876 1.15,0.34 0.3523,0.1383 0.6878,0.3161 1,0.53 0.2885,0.2073 0.5594,0.4381 0.81,0.69 l -1.53,1.76 c -0.3898,-0.3584 -0.8273,-0.6613 -1.3,-0.9 -0.4643,-0.2242 -0.9744,-0.3372 -1.49,-0.33 -0.438,0 -0.8715,0.088 -1.27,0.27 -0.3805,0.1712 -0.7211,0.4198 -1,0.73 -0.2853,0.3158 -0.5091,0.6821 -0.66,1.08 -0.1568,0.4222 -0.2348,0.8696 -0.23,1.32 v 0 c 0,0.4536 0.073,0.9043 0.23,1.33 0.1478,0.4002 0.3682,0.7697 0.65,1.09 0.5816,0.6505 1.4176,1.0156 2.29,1 0.5466,0.018 1.0891,-0.099 1.58,-0.34 0.469,-0.256 0.9027,-0.572 1.29,-0.94 l 1.53,1.54 c -0.284,0.3039 -0.5916,0.5848 -0.92,0.84 z m 8.53,0.95 -2.34,-3.5 h -1.89 v 3.5 h -2.4 v -10.92 h 5 c 1.0887,-0.045 2.1562,0.3106 3,1 0.7393,0.6766 1.1358,1.6494 1.08,2.65 v 0 c 0.034,0.7728 -0.1953,1.5342 -0.65,2.16 -0.4367,0.5582 -1.0227,0.9812 -1.69,1.22 l 2.67,3.9 z m 0,-7.19 c 0.032,-0.4479 -0.1541,-0.8836 -0.5,-1.17 -0.4066,-0.2819 -0.8961,-0.4193 -1.39,-0.39 h -2.34 v 3.14 h 2.43 c 0.4929,0.034 0.9809,-0.1156 1.37,-0.42 0.319,-0.2831 0.495,-0.6938 0.48,-1.12 z m 3.77,7.19 v -10.92 h 8.22 v 2.09 h -5.85 v 2.22 h 5.15 v 2.14 h -5.15 v 2.29 h 5.93 v 2.14 z m 19.2,-3.31 c -0.2724,0.653 -0.6776,1.2421 -1.19,1.73 -0.5331,0.4988 -1.158,0.8894 -1.84,1.15 -0.7497,0.2873 -1.5472,0.4298 -2.35,0.42 h -4.26 v -10.92 h 4.26 c 0.802,-0.011 1.599,0.1284 2.35,0.41 0.6831,0.2583 1.3085,0.6491 1.84,1.15 0.5108,0.4853 0.9159,1.0709 1.19,1.72 0.2849,0.6806 0.4278,1.4122 0.42,2.15 v 0 c 0.012,0.7511 -0.1311,1.4966 -0.42,2.19 z m -2.09,-2.15 c 0.01,-0.4546 -0.076,-0.9061 -0.24,-1.33 -0.1561,-0.3738 -0.3837,-0.7135 -0.67,-1 -0.2837,-0.2922 -0.624,-0.5236 -1,-0.68 -0.4273,-0.1645 -0.8821,-0.2459 -1.34,-0.24 h -1.86 v 6.58 h 1.86 c 0.457,0.01 0.9113,-0.071 1.34,-0.23 0.3767,-0.1507 0.7174,-0.379 1,-0.67 0.2857,-0.287 0.5132,-0.6266 0.67,-1 0.1661,-0.4234 0.2477,-0.8752 0.24,-1.33 z m 3.89,5.46 v -10.92 h 2.4 v 10.92 z m 9.17,-8.7 v 8.71 h -2.4 v -8.71 h -3.32 v -2.22 h 9 v 2.22 z m 4.27,8.7 v -10.92 h 8.22 v 2.09 h -5.85 v 2.22 h 5.19 v 2.14 h -5.15 v 2.29 h 5.93 v 2.14 z m 19.21,-3.31 c -0.2724,0.653 -0.6776,1.2421 -1.19,1.73 -0.5331,0.4988 -1.158,0.8894 -1.84,1.15 -0.7497,0.2873 -1.5472,0.4298 -2.35,0.42 h -4.27 v -10.92 h 4.26 c 0.802,-0.011 1.599,0.1284 2.35,0.41 0.6831,0.2583 1.3085,0.6491 1.84,1.15 0.5108,0.4853 0.9159,1.0709 1.19,1.72 0.2849,0.6806 0.4278,1.4122 0.42,2.15 v 0 c 0.015,0.7504 -0.1245,1.4959 -0.41,2.19 z m -2.09,-2.15 c 0.01,-0.4546 -0.076,-0.9061 -0.24,-1.33 -0.1561,-0.3738 -0.3837,-0.7135 -0.67,-1 -0.2837,-0.2922 -0.624,-0.5236 -1,-0.68 -0.4273,-0.1645 -0.8821,-0.2459 -1.34,-0.24 h -1.86 v 6.58 h 1.86 c 0.457,0.01 0.9113,-0.071 1.34,-0.23 0.3767,-0.1507 0.7174,-0.379 1,-0.67 0.2857,-0.287 0.5132,-0.6266 0.67,-1 0.1661,-0.4234 0.2477,-0.8752 0.24,-1.33 z m -84.87,21.46 c -0.1938,0.3778 -0.4791,0.701 -0.83,0.94 -0.3921,0.2641 -0.8293,0.4539 -1.29,0.56 -0.547,0.1302 -1.1077,0.194 -1.67,0.19 h -5.19 v -10.92 h 5.09 c 0.941,-0.056 1.8729,0.2121 2.64,0.76 0.6467,0.4847 1.0192,1.2521 1,2.06 v 0 c 0,0.2812 -0.037,0.5613 -0.12,0.83 -0.073,0.23 -0.177,0.4488 -0.31,0.65 -0.126,0.1898 -0.2774,0.3614 -0.45,0.51 -0.1691,0.1433 -0.3536,0.2674 -0.55,0.37 0.5716,0.2053 1.0835,0.5488 1.49,1 0.3853,0.4836 0.5777,1.0928 0.54,1.71 v 0 c 0,0.4688 -0.1242,0.9292 -0.35,1.34 z m -2.69,-6 c 0.01,-0.3271 -0.1458,-0.6371 -0.41,-0.83 -0.3509,-0.2147 -0.7595,-0.316 -1.17,-0.29 h -2.37 v 2.29 h 2.22 c 0.4363,0.021 0.8707,-0.072 1.26,-0.27 0.3122,-0.1791 0.4948,-0.5209 0.47,-0.88 z m 0.61,4.37 c 0.019,-0.3429 -0.1399,-0.6713 -0.42,-0.87 -0.4084,-0.247 -0.8843,-0.359 -1.36,-0.32 h -2.78 v 2.4 h 2.86 c 0.4357,0.024 0.8693,-0.077 1.25,-0.29 0.301,-0.1972 0.4729,-0.5409 0.45,-0.9 z m 12.49,0.73 c -0.212,0.5826 -0.554,1.1093 -1,1.54 -0.4271,0.4171 -0.9435,0.7317 -1.51,0.92 -0.6453,0.2108 -1.3213,0.3122 -2,0.3 -2.7689,0.279 -5.0782,-2.089 -4.73,-4.85 v -6.24 h 2.4 v 6.18 c -0.051,0.7207 0.1706,1.4343 0.62,2 0.451,0.4665 1.0821,0.7146 1.73,0.68 0.6441,0.035 1.2726,-0.2052 1.73,-0.66 0.4623,-0.5588 0.6852,-1.2777 0.62,-2 v -6.26 h 2.4 v 6.16 c 0.047,0.7529 -0.041,1.5082 -0.26,2.23 z m 9.49,0.8 c -0.1899,0.4106 -0.4702,0.773 -0.82,1.06 -0.3734,0.2994 -0.8013,0.5236 -1.26,0.66 -0.5254,0.1573 -1.0715,0.2348 -1.62,0.23 -0.8354,-7e-4 -1.6643,-0.1462 -2.45,-0.43 -0.807,-0.2911 -1.548,-0.7398 -2.18,-1.32 l 1.42,-1.7 c 0.4681,0.3983 0.9857,0.7344 1.54,1 0.5405,0.2432 1.1274,0.366 1.72,0.36 0.4046,0.024 0.8075,-0.07 1.16,-0.27 0.2632,-0.1614 0.4196,-0.4514 0.41,-0.76 v 0 c 0,-0.1417 -0.029,-0.2819 -0.09,-0.41 -0.078,-0.138 -0.192,-0.2521 -0.33,-0.33 -0.2116,-0.1271 -0.4362,-0.231 -0.67,-0.31 -0.2867,-0.1067 -0.66,-0.2167 -1.12,-0.33 -0.5083,-0.1208 -1.0091,-0.2711 -1.5,-0.45 -0.4096,-0.1468 -0.7942,-0.3559 -1.14,-0.62 -0.3122,-0.241 -0.5625,-0.5529 -0.73,-0.91 -0.1858,-0.4286 -0.2746,-0.893 -0.26,-1.36 v 0 c -0.01,-0.4651 0.089,-0.926 0.28,-1.35 0.1878,-0.3838 0.4534,-0.7244 0.78,-1 0.3521,-0.3 0.7599,-0.5277 1.2,-0.67 0.4975,-0.1595 1.0176,-0.2371 1.54,-0.23 0.7519,-0.01 1.4996,0.1137 2.21,0.36 0.6676,0.229 1.2927,0.5669 1.85,1 l -1.25,1.81 c -0.4516,-0.312 -0.9342,-0.5768 -1.44,-0.79 -0.4431,-0.1875 -0.9188,-0.286 -1.4,-0.29 -0.3702,-0.028 -0.7391,0.067 -1.05,0.27 -0.2204,0.1562 -0.3509,0.4099 -0.35,0.68 v 0 c 0,0.1591 0.03,0.3168 0.1,0.46 0.088,0.1492 0.2162,0.2705 0.37,0.35 0.231,0.1278 0.4759,0.2284 0.73,0.3 l 1.17,0.33 c 0.5041,0.1288 0.9986,0.2925 1.48,0.49 0.3954,0.162 0.7632,0.3847 1.09,0.66 0.2889,0.2451 0.518,0.5529 0.67,0.9 0.1623,0.3893 0.2406,0.8084 0.23,1.23 v 0 c 0,0.4753 -0.097,0.9455 -0.29,1.38 z m 1.61,1.79 v -10.92 h 2.4 v 10.92 z m 11.9,0 -5.29,-6.94 v 6.94 h -2.37 v -10.92 h 2.22 l 5.12,6.72 v -6.72 h 2.37 v 10.92 z m 3.78,0 v -10.92 h 8.22 v 2.14 h -5.85 v 2.22 h 5.15 v 2.14 h -5.15 v 2.29 h 5.93 v 2.14 z m 17.16,-1.79 c -0.1899,0.4106 -0.4702,0.773 -0.82,1.06 -0.3734,0.2994 -0.8013,0.5236 -1.26,0.66 -0.5254,0.1573 -1.0715,0.2348 -1.62,0.23 -0.8354,-7e-4 -1.6643,-0.1462 -2.45,-0.43 -0.807,-0.2911 -1.548,-0.7398 -2.18,-1.32 l 1.42,-1.7 c 0.4681,0.3983 0.9857,0.7344 1.54,1 0.5405,0.2432 1.1274,0.366 1.72,0.36 0.4046,0.024 0.8075,-0.07 1.16,-0.27 0.2632,-0.1614 0.4196,-0.4514 0.41,-0.76 v 0 c 0,-0.1417 -0.029,-0.2819 -0.09,-0.41 -0.078,-0.138 -0.192,-0.2521 -0.33,-0.33 -0.2116,-0.1271 -0.4362,-0.231 -0.67,-0.31 -0.2867,-0.1067 -0.66,-0.2167 -1.12,-0.33 -0.5083,-0.1208 -1.0091,-0.2711 -1.5,-0.45 -0.4096,-0.1468 -0.7942,-0.3559 -1.14,-0.62 -0.3122,-0.241 -0.5625,-0.5529 -0.73,-0.91 -0.1858,-0.4286 -0.2746,-0.893 -0.26,-1.36 v 0 c -0.01,-0.4651 0.089,-0.926 0.28,-1.35 0.1878,-0.3838 0.4534,-0.7244 0.78,-1 0.3521,-0.3 0.7599,-0.5277 1.2,-0.67 0.4975,-0.1595 1.0176,-0.2371 1.54,-0.23 0.7519,-0.01 1.4996,0.1137 2.21,0.36 0.6676,0.229 1.2927,0.5669 1.85,1 l -1.25,1.81 c -0.4516,-0.312 -0.9342,-0.5768 -1.44,-0.79 -0.4431,-0.1875 -0.9188,-0.286 -1.4,-0.29 -0.3702,-0.028 -0.7391,0.067 -1.05,0.27 -0.2204,0.1562 -0.3509,0.4099 -0.35,0.68 v 0 c 0,0.1591 0.031,0.3168 0.1,0.46 0.088,0.1492 0.2162,0.2705 0.37,0.35 0.231,0.1278 0.4759,0.2284 0.73,0.3 l 1.17,0.33 c 0.5041,0.1288 0.9986,0.2925 1.48,0.49 0.3954,0.162 0.7632,0.3847 1.09,0.66 0.2889,0.2451 0.518,0.5529 0.67,0.9 0.1623,0.3893 0.2406,0.8084 0.23,1.23 v 0 c 0,0.4753 -0.097,0.9455 -0.29,1.38 z m 9.1,0 c -0.1899,0.4106 -0.4702,0.773 -0.82,1.06 -0.3734,0.2994 -0.8013,0.5236 -1.26,0.66 -0.5254,0.1573 -1.0715,0.2348 -1.62,0.23 -0.8354,-7e-4 -1.6643,-0.1462 -2.45,-0.43 -0.807,-0.2911 -1.548,-0.7398 -2.18,-1.32 l 1.42,-1.7 c 0.4681,0.3983 0.9857,0.7344 1.54,1 0.5405,0.2432 1.1274,0.366 1.72,0.36 0.4046,0.024 0.8075,-0.07 1.16,-0.27 0.2632,-0.1614 0.4196,-0.4514 0.41,-0.76 v 0 c 0,-0.1417 -0.03,-0.2819 -0.09,-0.41 -0.078,-0.138 -0.192,-0.2521 -0.33,-0.33 -0.2116,-0.1271 -0.4362,-0.231 -0.67,-0.31 -0.2867,-0.1067 -0.66,-0.2167 -1.12,-0.33 -0.5083,-0.1208 -1.0091,-0.2711 -1.5,-0.45 -0.4096,-0.1468 -0.7942,-0.3559 -1.14,-0.62 -0.3122,-0.241 -0.5625,-0.5529 -0.73,-0.91 -0.1858,-0.4286 -0.2746,-0.893 -0.26,-1.36 v 0 c -0.01,-0.4651 0.089,-0.926 0.28,-1.35 0.1878,-0.3838 0.4534,-0.7244 0.78,-1 0.3521,-0.3 0.7599,-0.5277 1.2,-0.67 0.4975,-0.1595 1.0176,-0.2371 1.54,-0.23 0.7519,-0.01 1.4996,0.1137 2.21,0.36 0.6676,0.229 1.2927,0.5669 1.85,1 l -1.25,1.81 c -0.4516,-0.312 -0.9342,-0.5768 -1.44,-0.79 -0.4431,-0.1875 -0.9188,-0.286 -1.4,-0.29 -0.3702,-0.028 -0.7391,0.067 -1.05,0.27 -0.2204,0.1562 -0.3509,0.4099 -0.35,0.68 v 0 c 0,0.1591 0.03,0.3168 0.1,0.46 0.088,0.1492 0.2162,0.2705 0.37,0.35 0.231,0.1278 0.4759,0.2284 0.73,0.3 l 1.17,0.33 c 0.5041,0.1288 0.9986,0.2925 1.48,0.49 0.3954,0.162 0.7632,0.3847 1.09,0.66 0.2889,0.2451 0.518,0.5529 0.67,0.9 0.1623,0.3893 0.2406,0.8084 0.23,1.23 v 0 c 0,0.4753 -0.097,0.9455 -0.29,1.38 z" fill="#fff"/>
</svg>
