<svg xmlns="http://www.w3.org/2000/svg" width="20" height="20" viewBox="0 0 512 512">
  <path fill-rule="evenodd" clip-rule="evenodd" d="M480 0H32C14.312 0 0 14.312 0 32v448c0 17.688 14.312 32 32 32h448c17.688 0 32-14.312 32-32V32c0-17.688-14.312-32-32-32zM192 256s5.062-64 64-64 64 64 64 64 1.844 64-64 64-64-64-64-64zm256 192H64V224h68.53c-2.655 10.28-4.53 20.875-4.53 32 0 70.688 57.312 128 128 128s128-57.312 128-128c0-11.125-1.875-21.72-4.53-32H448v224zm0-288h-96V64h96v96z" fill="#111111"/>
</svg>
