<svg xmlns="http://www.w3.org/2000/svg" width="20" height="20" viewBox="0 0 30 30">
  <path d="M-257.666 0h24c1.656 0 3 1.343 3 3v24c0 1.657-1.344 3-3 3h-24c-1.657 0-3-1.343-3-3V3c0-1.657 1.343-3 3-3z" fill-rule="evenodd" clip-rule="evenodd" fill="#111111"/>
  <path d="M-235.5 8.887c-.736.32-1.525.54-2.355.637.846-.5 1.496-1.293 1.803-2.237-.793.463-1.67.8-2.605.98-.748-.785-1.814-1.276-2.994-1.276-2.27 0-4.107 1.814-4.107 4.047 0 .316.035.625.105.92-3.41-.167-6.435-1.778-8.458-4.224-.354.598-.555 1.293-.555 2.034 0 1.403.725 2.64 1.824 3.366-.67-.02-1.305-.203-1.857-.506-.002.017-.002.034-.002.05 0 1.96 1.417 3.594 3.294 3.966-.346.092-.707.142-1.082.142-.264 0-.52-.025-.77-.072.52 1.606 2.036 2.775 3.833 2.808-1.404 1.086-3.174 1.73-5.098 1.73-.33 0-.657-.02-.98-.055 1.816 1.147 3.973 1.817 6.29 1.817 7.548 0 11.675-6.162 11.675-11.506 0-.176-.004-.35-.012-.523.8-.57 1.5-1.28 2.048-2.092z" fill="#fff"/>
  <path d="M-110.333 0h24c1.657 0 3 1.343 3 3v24c0 1.657-1.343 3-3 3h-24c-1.657 0-3-1.343-3-3V3c0-1.657 1.343-3 3-3z" fill-rule="evenodd" clip-rule="evenodd" fill="#111111"/>
  <path d="M-93.545 30V19.508h3.538l.53-4.088h-4.068v-2.61c0-1.185.33-1.99 2.036-1.99l2.178-.002V7.16C-89.71 7.113-91 7-92.502 7c-3.138 0-5.284 1.905-5.284 5.404v3.016h-3.547v4.088h3.547V30h4.24z" fill="#fff"/>
  <path d="M3 0h24c1.657 0 3 1.343 3 3v24c0 1.657-1.343 3-3 3H3c-1.657 0-3-1.343-3-3V3c0-1.657 1.343-3 3-3z" fill-rule="evenodd" clip-rule="evenodd" fill="#111111"/>
  <path d="M9.423 6C8.36 6 7.5 6.863 7.5 7.925c0 1.063.86 1.926 1.923 1.926 1.06 0 1.92-.86 1.92-1.923 0-1.062-.86-1.925-1.92-1.925zm-1.66 16h3.318V11.313H7.767V22zm11.76-10.954c-1.612 0-2.694.886-3.137 1.726h-.045v-1.46h-3.18V22h3.316v-5.287c0-1.395.264-2.745 1.988-2.745 1.7 0 1.724 1.594 1.724 2.834V22H23.5v-5.862c0-2.88-.62-5.092-3.976-5.092z" fill="#fff"/>
</svg>
