<svg xmlns="http://www.w3.org/2000/svg" width="1094.862" height="639.788" viewBox="0 0 1094.862 639.78811">
    <path d="M1086.5493 439.27703H479.89882v-8.80931H1086.5493zM716.14274 28.680595c0 0 10.8093 75.333135 9.47597 143.332965-1.33333 67.99983-1.33333 185.99954-3.33332 201.33283-2 15.3333-6.33864 31.15059 12.0973 22.02128 18.43595-9.13064 24.06527-9.01998 24.56927-24.02127.504-15.0013-6.66665-146.6663-6.66665-213.3328 0-66.666496 6.66665-145.332965 2.66666-155.3329453-3.99999-9.99997-22.31194 10.9786403-27.99993 13.9999703-5.68665 3.02132-13.03196 4.78932-10.8093 11.99997m91.79669 0c0 0 10.80931 75.333135 9.47598 143.332965-1.33333 67.99983-1.33333 185.99954-3.33333 201.33283-1.99999 15.3333-6.33865 31.15059 12.0973 22.02128 18.43596-9.13064 24.06528-9.01998 24.56928-24.02127.50399-15.0013-6.66665-146.6663-6.66665-213.3328 0-66.666496 6.66665-145.332965 2.66666-155.3329453-3.99999-9.99997-22.31195 10.9786403-27.99993 13.9999703-5.68666 3.02132-13.03197 4.78932-10.80931 11.99997M1020.9544 376.01178c-29.46932 18.94129-90.99983 16.33329-100.33314-9.99998-9.33331-26.33326 11.99997-51.3332 65.99992-63.99984 35.19722-8.25597 55.33312-2.33332 56.33312 14.99997 1 17.33329 7.4694 40.05856-21.9999 58.99985m55.9999 0c-3.492-9.08264-6-52.99987-6-86.33312 0-33.33325-7.6667-67.99983-53.9999-78.9998-42.60529-10.11464-88.02783 7.39065-109.83578 22.97328-2.55199 1.82399-2.24799 5.70531.53467 7.15331 3.16799 1.648 7.25465 3.63199 11.18664 5.12532 8.11465 3.08133 14.11463 5.41465 18.44795-2.25199 4.33333-7.66665 28.99993-22.66661 57.6666-19.99995 28.66662 2.66666 43.66652 15.99996 45.99992 31.33325 2.3333 15.3333 6.3333 29.66659-17 29.66659-23.3333 0-121.3331 13.66664-136.33306 68.33317-14.99995 54.66653 73.39582 52.21587 103.86374 41.94123 30.46932-10.27465 51.05192-15.7773 51.05192-15.7773 0 0-4.7226 15.94263-2.4866 18.88929 2.2373 2.94666 20.7306-4.96799 27.8185-8.51065 7.0854-3.54266 12.5774-4.45999 9.0854-13.54263M595.62138 224.45678c26.78793.25733 39.39456 11.61197 45.25988 21.11461 3.45465 5.59599-.67467 12.81197-7.25065 12.81197H532.40155c0 0 16.99728-34.37058 63.21983-33.92658m89.3331 123.99969c-6.22265-13.7773-21.77728 20.88928-55.99985 28.88926-34.22258 7.99998-124.88901 4.88799-111.99971-94.22243h153.3596c6.08931 0 10.6373-5.60132 9.37197-11.55597-4.21999-19.86662-18.57328-58.85452-66.49449-63.88117-64.68117-6.78532-133.57032 54.99319-126.90367 118.1037 6.66665 63.11051 72.15448 75.09048 122.07835 69.98916 49.9212-5.09999 82.81045-33.54525 76.5878-47.32255" fill="#22284e"/>
    <path d="M 248.12063,526.16898 C 172.1755,536.76888 97.402358,501.34638 97.402358,501.34638 V 240.44166 c 0,-3.64666 2.897332,-6.65332 6.542652,-6.74399 142.99696,-3.55999 265.66597,45.00789 279.67526,134.31567 14.22263,90.66644 -59.55584,147.55564 -135.49964,158.15564 M 93.189039,101.92334 C 161.86886,92.723364 267.97925,80.866064 255.69795,135.26725 243.41664,189.66845 95.995699,205.81774 95.995699,205.81774 Z M 448.38811,362.70669 C 437.5988,219.62438 238.49932,195.9911 238.49932,195.9911 296.93383,168.8565 349.84303,121.79129 329.75375,93.502034 309.66447,65.212764 115.17698,56.902125 56.510469,70.235424 c -58.6665129,13.3333 -46.153212,24.66794 -30.007921,26.77726 16.145291,2.10933 16.674623,39.889236 21.057278,83.535786 4.381322,43.64523 6.409316,174.13157 6.409316,249.91938 0,75.78513 -33.01458,75.32243 -45.0185482,81.41443 -12.0039686,6.092 -15.5519595,25.908 12.6413002,18.948 28.190593,-6.96 112.251696,22.9599 195.011486,22.4559 82.76111,-0.5053 242.5727,-47.4959 231.78473,-190.57949" fill="#bd1c21"/>
    <path d="m 640.36137,474.04078 c -0.0107,0.003 -0.0187,0.004 -0.0187,0.004 0.007,-10e-4 0.0133,-0.003 0.0187,-0.004" fill="#22284e"/>
    <path d="M655.31837 496.21278v-19.44395c0 0 27.98526-8.48131 27.9546 4.81732-1.19733 12.74533-14.84797 17.35733-22.62128 18.95733-2.75333.5666-5.33332-1.52-5.33332-4.3307m40.8359 34.7839c-5.86932-6.3813-25.18261-28.5746-25.18261-28.5746 0 0 21.29062-6.652 26.17861-18.65194 4.88932-11.99863-16.30263-18.80262-56.7892-9.7293.252-.0493 3.128-.32934 3.128 12.8853v46.64254c0 0 .0853 5.2413-1.77867 7.064-1.86532 1.824 5.25332 1.1053 10.47064-2.2027 5.21866-3.3066 2.99733-3.9733 2.99733-15.0839v-16.8427c0 0 23.77727 18.8427 28.44393 25.2866 4.66665 6.4454 8.40398 9.6387 12.66663 9.556 4.26133-.084 14.25064-2.6666 13.67997-4.8893-.56933-2.2213-7.94398.9213-13.81463-5.46M718.48936 471.96278c-1.81199.81333-2.63465 2.88666-1.92399 4.74399.91999 2.40666 2.00932 6.71998 2.30266 13.9853.53066 13.19461.53066 34.70921-.0987 40.20661-.62933 5.4959-.62133 8.6466 1.51866 8.6693 2.13866.023 11.61997-1.0307 11.25464-7.628-.36533-6.5947-1.58266-39.6746-.216-39.9892 1.36533-.3147 38.91324 1.1413 41.9359.1559 3.02532-.98395 8.72264-6.45193 4.65065-5.49594-4.06932.95733-47.10921 4.29733-47.10921.424 0-3.87599-1.56267-9.10531 1.05199-9.84397 2.616-.73733 31.92926 1.45599 34.70125-.89467 2.77333-2.35066 7.73065-6.22665 3.73066-5.81065-3.99999.416-28.44393 1.3-39.33324-.032-5.80265-.708-9.90131.35867-12.4653 1.50933M832.78235 511.05578c-2.17199 1.876-30.15726 1.416-30.15726 1.416l14.44397-30.47326c0 0 17.88528 27.17996 15.71329 29.05726m-1.888-23.81594c-3.35332-9.32264-8.43997-18.72795-11.93997-18.89462-3.49999-.16667-7.83331 7.33332-9.66664 11.8333-1.83333 4.49999-28.07325 57.99586-31.78658 60.24656 0 0 8.53332 3.4786 10.99331-1.052 2.45999-4.528 7.75865-20.48 13.60796-21.672 5.85198-1.1893 34.09991-1.672 34.81058-.097.70799 1.5746 8.57864 23.0253 10.72664 23.5493 2.14799.5253 11.23997-2.832 10.9453-5.6534-.29733-2.8213-24.33727-38.9385-27.6906-48.25984M947.52134 473.83778c0 0 3.34399 2.31066 4.60266 18.7426 1.25866 16.4306 1.16266 36.2653-.67067 40.7653-1.83333 4.4999 0 5.4999 4.16666 6.3333 4.16665.8333 43.99989.6666 49.99991.5 6-.1667 7.9507-1.304 10-2.8334 2.0493-1.5306 3.4147-4.7426-2.876-4.0373-6.2906.704-40.69463 5.3693-47.3266-.6293-1.79733-14.3333-1.77867-38.9492-1.77867-38.9492 0 0 41.40127-1.0894 45.02397-.7374 3.624.3534 8.8013-5.85597 5.5466-5.75197-3.256.10534-37.42394 3.48666-50.25723.62933-.99867-7.52398.31599-11.52397.31599-11.52397 0 0 27.51862 3.16666 32.68532 0 5.16662-3.16666 10.66662-5.32932 5.53462-5.64532-5.13332-.31333-23.86531 2.4-35.90927 1.044-12.04531-1.35733-13.98797-1.08-19.05729 2.09333M927.83734 533.71978c0 0 11.58397-5.4307 12.35064-1.9853.76666 3.444-.9 5.1106-8.73332 6.2773-7.83331 1.1667-27.82926 8-45.08122 0-17.25194-8-24.25193-25.9999-20.9186-41.6666 3.33332-15.6666 25.16659-27.66657 51.16653-26.83324 14.99996 2 14.55996 4.11999 12.05197 5.89999-2.508 1.77866-8.70131 2.65332-11.05197.93333-2.35067-1.72-17.83329-4.99999-30.99993 4.66665-13.16662 9.66664-17.31061 31.04657-2.12798 45.17727 15.18262 14.1279 32.89324 12.4053 43.34388 7.5306M475.71539 528.48978c2.90399-5.3773 5.30532-2.2227 10.93864 2.0933 5.63465 4.3187 21.93728 13.724 34.34125 1.4654 12.40397-12.2587 6.62665-22.48-3.15066-24.48-9.77864-2-33.76125-1.0266-32.54659-19.06927 1.21333-18.04262 28.6506-18.65195 39.15457-18.01462 10.50264.63867 7.61332 6.63865 1.16933 7.08398-6.44398.444-6.88931-6.22265-16.22262-2.44532-9.33331 3.77865-18.66662 14.44529-10.22131 20.22263 8.44398 5.7773 42.16389 1.5186 41.96923 21.3146-.192 19.7959-28.59327 29.4039-54.28253 22.8213-11.01998-3.0254-14.16797-5.404-11.14931-10.992M1022.7134 528.48978c2.904-5.3773 5.3053-2.2227 10.9386 2.0933 5.6347 4.3187 21.9373 13.724 34.3413 1.4654 12.4053-12.2587 6.6266-22.48-3.1507-24.48-9.7773-2-33.7612-1.0266-32.5466-19.06927 1.2134-18.04262 28.6506-18.65195 39.1546-18.01462 10.5027.63867 7.6147 6.63865 1.1693 7.08398-6.4439.444-6.8879-6.22265-16.2213-2.44532-9.3333 3.77865-18.6666 14.44529-10.2226 20.22263 8.444 5.7773 42.1639 1.5186 41.9706 21.3146-.1934 19.7959-28.5946 29.4039-54.2826 22.8213-11.0213-3.0254-14.1693-5.404-11.1506-10.992M557.81938 479.96978c-1.48266-1.79066-.80266-4.49466 1.35066-5.37465 5.86799-2.39866 17.31729-6.57599 15.9013-2.016-1.89333 6.09865-12.33864 15.7533-12.33864 33.81455 0 18.0613 6.38132 32.3346 22.96794 29.4213 16.58796-2.9147 28.1746-16.6906 28.26927-21.3586.096-4.668-1.20933-33.86393-1.20933-33.86393 0 0-5.34132-3.428-2.69466-4.35866 2.64666-.93066 15.17062-10.31464 16.36262-4.49066 1.19333 5.82399-1.67866 23.82795-1.46533 40.82525.21467 16.9986 4.27332 22.3319 1.46533 24.5533-2.80666 2.2226-11.36664 5.5813-13.08663 4.3466-1.72-1.2347-.108-13.4026-.108-13.4026 0 0-24.75327 20.1119-48.29321 14.1399-23.54127-5.9719-12.46131-49.3545-5.77866-60.88514-.52533-.44133-.96799-.89866-1.34266-1.35066M121.59644 594.70878c.12-1.6493.30533-3.296.464-4.9427-.24267-.076-.48533-.1493-.72667-.2253-.68666.4853-1.33466 1.04-2.06666 1.4427-1.36533.7506-2.80532 1.3666-4.14932 2.1506-.26667.1574-.44533 1.1054-.31733 1.1974 1.40933.9946.75333 2.4053.80533 3.6466.16933 4 .82133 21.8853.424 22.568-.76533 1.316-1.74933 2.5093-2.68666 3.7186-.73733.9507-1.37067 2.1307-2.344 2.7227-2.92799 1.7786-5.97065 3.3746-9.02931 4.924-1.13199.576-8.625311 2.5053-14.57729.076-2.158664-.6627-3.930659-1.6627-5.07599-3.716-.386665-.6933-.838664-1.3507-1.299997-2.0027-4.899986-3.844-.218666-18.8906-.218666-18.8906l.01867.031c.763998-5.6067 3.583991-10.2453 6.893312-14.66.69733-.9293.60133-1.5667-.0853-2.3533-.409329.1453-.762659.2586-1.105329.396-1.981319.7853-3.987981 1.516-5.918643 2.4093-.494665.2293-.986664.964-1.02933 1.5013-.03067.3907.678665.8414 1.055997 1.2614-.311999 1.084-.683998 2.3853-1.065331 3.684-.09867.3306-.205332.6626-.349332.976-1.810661 3.9466-4.421321 16.1466-4.76932 17.2959-.250666.8213-.402666 1.608-.298666 2.3707l-.04133-.011c0 0-.02267 8.8133 5.238653 13.0666.102666.108.201333.22.305333.324.299999.3054.734664.4707 1.16933.6427.302666.1653.598665.3347.929331.4707 2.251994 1.7333 4.878658 2.584 7.586647 2.332 3.18799-.2974 6.37598-1.0067 9.466639-1.8787 3.842662-1.0813 7.401322-2.8533 10.706642-5.1613 1.84-1.284 3.91199-2.2333 5.87999-3.3347.16533.099.32933.196.49466.2934 0 1.2773-.0413 2.5559.016 3.8306.032.716-.46933 4.268.34934 5.6 1.68133-1.06 3.37199-2.1 5.03065-3.192.26-.172.54533-.5867.52133-.8653-.27333-3.364-.304-36.2839-.20133-37.6986M445.7714 591.17578c-2.02666.26-19.57062.5027-22.10928.085-3.85866-.6333-12.8293-1.3146-13.4453-1.244-.48.055-.988.025-1.46533-.068-.772-.1506-1.52266-.5306-2.29199-.5546-1.92133-.06-3.25199 1.216-4.50666 2.4133-.52.496-.63066 1.4187-.92799 2.148.85333.1293 2.00132.668 2.50266.3067 1.27199-.912 2.61466-.712 3.92132-.7307 3.44666-.053 6.89998-.064 10.33997.1267 1.656.092 3.28533.6733 4.69999.984-.50533 1.5613-1.26533 2.8653-1.28933 4.1813-.0707 4.0186.656 32.1626.35467 36.3972-.084 1.1747.72133 1.3027 1.54666 1.248.492-.033 1.032-.2333 1.43866-.5173.99333-.6907 2.76666-1.5293 2.72-2.2067-.14267-2.1106-.30667-36.0452-.13467-37.5652.0533-.4773.48-1.2773.788-1.3027 1.62933-.1346 3.27866-.1586 4.91065-.056 2.91333.1854 5.81732.496 8.72665.7307.30266.025.64-.051.91866-.176 1.208-.544 2.412-1.1013 3.59466-1.6987 1.14533-.5813 1.84666-2.228 1.324-3.104-.53334.2054-1.05733.5294-1.616.6027M618.23938 629.00678c-1.604 1.592-2.99599 3.2307-5.51199 3.3507-1.71466.08-3.41732.4786-5.11598.788-3.73999.684-7.42798-.067-11.02931-.752-2.52799-.4787-4.91865-1.8374-7.27731-2.992-1.96-.96-3.82399-2.1347-5.65599-3.3307-.32533-.212-.68267-.4013-1.032-.5987-.71466-.7053-2.02799-3.2613-2.33999-3.5093-2.60266-6.1133-.79733-14.6493-.21067-17.0213.61467-.8973 1.41467-1.6693 2.06933-2.472 1.68133-2.064 3.87199-3.732 5.94932-5.4426 1.11733-.9214 2.41199-1.6493 3.69332-2.3427 5.24932-2.84 10.78664-3.8306 16.66263-2.4386.104.023.21066.044.30933.081 4.51999 1.7773 8.96398 3.728 11.9213 7.8173.968 1.336 1.448 3.02 2.19733 4.5213 0 0 .748 9.5307 0 14.6413.0453.033.088.036.132.056-.0307.14-.068.2827-.0653.4214.10666 3.9373-2.08933 6.6319-4.69599 9.2226m9.17731-27.7639c-.22667-.572-.65733-1.072-1.01733-1.5174-.98533-1.2266-12.22397-8.9799-14.5933-9.7226-1.38266-.432-2.91866-.5933-4.37199-.5413-3.18932.1173-6.37065.4453-9.55331.6933-.31599.025-.65999.031-.93999.1573-3.96399 1.7987-7.94932 3.5614-11.85997 5.472-1.01067.492-1.84 1.412-2.65466 2.232-.90267.908-1.704 1.9173-2.52666 2.9013-.29334.3494-.444.952-.79867 1.0947-2.21066.8853-3.55199 2.7773-4.41465 4.6813-2.38267 5.26-3.77066 10.6973-1.50533 16.5026.55466 1.4214 1.06133 2.4134 2.58132 2.8214.45867.124 1.172.7973 1.116 1.0906-.29067 1.4774.512 1.868 1.67466 2.1654.42667.1093.78667.5146 1.14933.8186 1.67067 1.4 3.42399 2.604 5.64132 3.012 3.78266.6987 7.54665 1.5027 11.33331 2.1747 14.55463 2.584 20.73061-1.78 25.48527-5.028.45466-.3107.95466-.6267 1.39599-.9733 1.156-.5347 3.24-2.2667 4.93466-7.828.232-.3867.36-.7493.31866-1.136.26534-.9813.52134-2.036.756-3.24 2.01466-10.3386-1.01333-14.632-2.15066-15.8306M690.71737 594.70878c.12133-1.6493.30533-3.296.464-4.9427-.24267-.076-.48533-.1493-.72667-.2253-.68666.4853-1.33333 1.04-2.06532 1.4427-1.36667.7506-2.80666 1.3666-4.14933 2.1506-.268.1574-.44666 1.1054-.31866 1.1974 1.41066.9946.75333 2.4053.80666 3.6466.168 4 .82 21.8853.42267 22.568-.764 1.316-1.748 2.5093-2.68533 3.7186-.73733.9507-1.37066 2.1307-2.34399 2.7227-2.928 1.7786-5.97199 3.3746-9.02931 4.924-1.13333.576-8.62665 2.5053-14.57863.076-2.15733-.6627-3.93066-1.6627-5.07599-3.716-.38667-.6933-.83867-1.3507-1.29867-2.0027-4.90132-3.844-.21866-18.8906-.21866-18.8906l.0173.031c.764-5.6067 3.58399-10.2453 6.89332-14.66.69733-.9293.60266-1.5667-.0853-2.3533-.40933.1453-.76133.2586-1.10533.396-1.97999.7853-3.98799 1.516-5.91865 2.4093-.49466.2293-.98533.964-1.02933 1.5013-.0307.3907.68.8414 1.056 1.2614-.312 1.084-.68267 2.3853-1.06533 3.684-.0987.3306-.20533.6626-.348.976-1.81066 3.9466-4.42132 16.1466-4.77066 17.2959-.25066.8213-.40266 1.608-.29733 2.3707l-.0427-.011c0 0-.0227 8.8133 5.23998 13.0666.10134.108.20134.22.304.324.30133.3054.736.4707 1.16933.6427.30267.1653.59867.3347.92933.4707 2.252 1.7333 4.87866 2.584 7.58665 2.332 3.18933-.2974 6.37598-1.0067 9.46798-1.8787 3.84132-1.0813 7.39998-2.8533 10.70664-5.1613 1.83999-1.284 3.91199-2.2333 5.87998-3.3347.164.099.32933.196.49333.2934 0 1.2773-.0413 2.5559.016 3.8306.032.716-.46799 4.268.34934 5.6 1.68133-1.06 3.37332-2.1 5.03065-3.192.26-.172.54533-.5867.52267-.8653-.27467-3.364-.30534-36.2839-.20267-37.6986M810.42435 611.35178c-.0293-1.2747-.148-2.5453-.176-3.8187-.0213-.9573.35467-12.2159.40933-13.7226.036-1.028-.192-2.0893-.476-3.0853-.068-.24-.90933-.5067-1.25599-.38-1.41067.5133-2.76666 1.1733-4.15599 1.7853 0 1.356-.0573 2.6627.0187 3.9613.0547.9347 1.58267 7.7934.74534 10.3347-.10534.3186-.568.712-.892.7373-2.89732.2307-29.19859-.408-31.17991-.5707.032-2.2973-.0253-12.9693.59466-14.4559.412-.992-.492-2.392-1.32266-2.0493-1.60667.664-3.28666 1.3679-4.58132 2.4746-.56134.4813-.27467 1.9933-.30667 3.0387-.0227.7426 1.18666 9.4959 1.224 10.0333.20133 2.9093.59733 24.8226-.38667 26.7279-.312.6053-.616 1.2947-.628 1.9533-.0107.5547.296 1.2227.68267 1.6294.17066.1786.924-.093 1.35333-.288.87066-.3907 1.69333-.8894 2.55199-1.3094 1.67333-.816 2.03333-1.592 1.75866-3.4386-.15066-1.0173-.73066-16.9973-.76933-18.9453-.02-1.1173.36933-1.8333 1.648-1.8307 1.78266 0 27.67192 1.34 29.28658-.3733.564-.5987 1.22666-.6893 1.524.3547.14133.5026.408.992.43866 1.5.156 2.5786-1.09199 19.3613-1.39999 22.2199-.072.6827.088 1.388.14133 2.084.69866-.12 1.54533-.032 2.06666-.4013 1.29333-.9174 2.47333-2.012 3.61866-3.1174.25466-.244.28533-.8466.23333-1.2599-.51333-4.0694-.70533-17.276-.76533-19.788M751.43136 617.51378c.516-1.68-.156-2.608-1.96666-2.6107-3.33199-.01-6.66399 0-9.92664 0-.34134.4333-.62934.7507-.85867 1.1067-.28133.4373-.51466.908-.76933 1.364.49333.052.98533.1293 1.48.1533 1.99466.096 3.99065.176 5.79998.2533.66533 2.496 1.15867 4.672.88267 7.016-.216 1.8227.12 3.7093.17466 5.5707.008.2866-.1.7453-.29466.8426-4.08533 1.868-9.56665 2.344-14.91863 1.52-7.08265-.3226-17.35995-4.216-19.57861-15.7546-1.84933-9.6146 5.08132-16.74 7.46797-18.8693.0827-.091.18133-.2053.25467-.2827.15733-.1186.32133-.228.48266-.3439.02-.016.0587-.047.0587-.047h.001c.55067-.3934 1.10933-.7707 1.70133-1.084 2.49333-1.3214 4.73199-3.3547 7.79465-3.4307 1.43733-.036 2.87866-.053 4.30665-.1907 2.04267-.196 3.788.54 5.57866 1.38 1.16266.5454 2.55599 1.1054 3.74799.9454 1.232-.1654 2.36933-1.1627 3.50132-1.8667.34267-.2133.536-.6653.796-1.0067-.052-.128-.104-.2533-.15733-.38-1.34667.2467-2.56666-.7293-3.84133-.98-.10133-.019-.20133-.035-.30266-.045-21.49861-3.5733-31.33858 4.832-34.59991 15.9626-.0653.097-.12666.1947-.16933.3014-1.61866 4.0186-1.53066 8.1839-1.03733 12.3466.001.019.001.037.003.055 1.47466 15.9119 14.53462 16.1559 14.53462 16.1559 5.32532 1.0227 10.6493 1.0774 16.03329.2654 3.74666-.5654 7.56665-.6307 11.33864-1.056.94-.1054 2.52133-.6307 2.60133-1.148.252-1.648-.232-15.772-.11867-16.144M920.51734 608.97178c-1.87466.1387-3.77332.416-5.62399.2373-1.02266-.099-2.13332-12.5933-2.11332-13.6546.0347-1.7253 1.03866-2.6733 2.74399-2.8227 2.32533-.2026 4.64265-.4826 6.96398-.7306 1.292-.093 6.44265.84 7.42398 1.3373 1.05867.536 2.288.904 3.104 1.696.60133.5813 1.00666 1.7787.88399 2.6107-.24666 1.688-.59333 3.4533-2.01466 4.6973-.27733.2426-.52933.5386-.71333.856-2.10666 3.6466-5.63065 4.7653-9.46664 5.36-.408.063-.784.3853-1.188.4133m24.39194 24.1453c-2.29066-1.4214-21.47595-21.9173-21.28261-22.8133 1.24133-.4013 2.66399-.86 4.08532-1.32.99866-.324 2.05066-.5427 2.97599-1.0107 1.05867-.5346 1.92133-1.4346 2.98399-1.972 8.19732-4.1386 7.00399-12.5093 5.29199-13.3053-1.76133-.8173-3.63599-1.5253-5.53465-1.888-5.63999-1.076-11.34664-1.208-17.06796-.7613-.156.011-.328.063-.46933.017-3.10533-.9653-6.06399-.236-8.97465.8187-.44533.1613-.77866.628-1.39466 1.1493 2.06133.708 2.188 2.0374 2.244 3.5974.11866 3.2533.42799 37.2585-.76 39.7265-.14934.3107-.16934.6867-.35867 1.5027.952-.4133 1.588-.6413 2.17866-.9573.828-.4414 1.56667-1.1667 2.44-1.38 1.98132-.484 2.51199-1.3 2.37199-3.356-.28-4.0853-.41333-8.1813-.532-12.2747-.0333-1.1493.236-2.304.29067-3.4586.0533-1.1387.012-2.28.012-3.852.888.5533 1.30399.7573 1.65866 1.04 1.88666 1.504 19.55995 15.8693 20.63462 19.5159.084.2854.34933.5414.58533.7507 1.33999 1.1867 2.69466 2.3573 4.05065 3.524.10934.093.28534.1493.432.156 3.00666.124 5.67866-.8 8.11998-2.684-.73333-.316-1.45733-.3827-2.17999-.4707-.60933-.076-1.324 0-1.80133-.2946M965.57134 590.85178c-.71066.34-1.4.8627-2.14399.9653-1.044.1414-1.568.4947-1.49467 1.5854.10534 1.5213.152 3.0466.27467 4.5653.192 2.38-.20133 34.7959-.61467 36.9199-.0627.3227-.064.8347.12267.9827.26533.2066.81733.3253 1.09866.184 1.45067-.7294 2.89733-1.4854 4.24533-2.384.42133-.2814.73466-1.036.73733-1.5747.009-2.176.116-34.9892.24-36.2919.0773-.816.19066-1.6293.292-2.4427.15066-1.1866.30266-2.372.45466-3.5586-.18666-.077-.37333-.1534-.56133-.2307-.884.4253-1.76533.856-2.65066 1.28M1051.8544 592.52878c0 0 2.9893 6.4 2.7947 17.088-.1947 10.6893.196 20.8679-.3414 22.6826-.5373 1.8146-2.3613 2.8146 1.2267 2.9706 3.5866.1547 21.3639-.4013 27.9199.5947 6.556.9973 11.256-1.4013 11.4053-3.6467.1507-2.2453-6.7386.4214-12.4053.532-5.6666.112-21.8959 1.0987-22.5039-6.3946-.6067-7.4933-1.7387-21.548.1066-21.5586 1.8467-.012 26.2773-.8134 29.2826-.708 3.004.1066 5.496-3.3227 3.3054-3.4974-2.1907-.1746-23.288 3.2907-32.684.5587-1.396-1.9547-1.332-7.5173.252-7.5666 1.5814-.049 18.7907 2.012 21.2813.053 2.492-1.96 5.7907-4.592 3.3134-3.9813-2.4774.6106-23.02 2.2066-26.9093.8733-3.888-1.3333-6.98-.5893-6.044 2M1011.9654 630.54978c-.1387.056-.2827.1107-.42.1693-4.8613 2.0214-9.9026 3.1827-15.21862 2.736-.9934-.084-1.98-.2386-3.08-.376.1626-.332.2173-.6426.348-.6773 1.8853-.5227.6773-32.1626.7093-32.7479.024-.464-.053-.932-.065-1.4-.027-1.252-.216-2.5387.015-3.7427.1-.528 1.06-1.2533 1.6414-1.2653 1.808-.036 3.6226-.067 5.40802.116h-.792c0 0 2.544.476 6.0919 1.456.1534.08.3054.148.44.124 8.0107 2.2573 20.6213 6.996 21.3013 14.5866.8147 9.0933-7.7653 16.9693-16.3786 21.0213m2.5453-37.5212l.152-.104c-5.4386-1.3014-11.4613-2.5014-14.3413-2.9427-1.81732-.2773-3.68002-.5373-5.50002-.4267-2.6733.1614-5.3279.6454-7.9853 1.0427-.288.044-.75735.4493-.73735.6467.0307.3253.35075.668.62935.9093.5107.44 1.4907.7627 1.5467 1.2227.1707 1.4013 0 2.8453-.045 4.2426.256 2-.041 36.0146-1.444 36.3546-.70142.1693-1.35875.5267-2.03608.7987.036.1626.0733.324.11066.4866 1.74002.3734 3.46542.8654 5.22402 1.0694.732.084 1.58.1906 2.2347-.2454l-.01.015c0 0 19.79202 1.8306 31.91192-9.2867.3707-.28.716-.62 1.0747-.9146 1.476-1.2227 2.6773-2.72 3.9933-4.1133 1.988-2.9134 3.696-7.1134 3.552-12.9213-.3333-13.5-18.3333-15.8333-18.3333-15.8333M42.600373 632.06188c-1.834663.916-3.609325.093-5.479987-.2707-2.191993-.4253-4.731987-.5333-6.786648.1827-2.579993.8973-4.927987.432-7.041315-.428-3.094659-1.256-6.050651-2.8973-8.927977-4.6267.104.016.210666.041.313333.055-6.2266501-3.624-5.5373192-15.7146-5.1439863-19.5759 1.4253293-3.9307 4.4773213-6.644 7.4799803-9.2133 2.69066-2.3054 5.907984-4.0454 9.535975-4.736 2.113327-.4014 4.203988-1.2347 6.311983-1.26 2.442661-.031 5.09732.1386 7.289314 1.0813 2.795993 1.2027 5.882651 2.0267 8.123979 4.4133 0 0 5.531985 5.6573 6.179984 18.18.02133-.064.03867-.1227.06-.184.0067 1.02-.143999 1.976-.438665 2.9853-.483998 1.6587-.733331 3.3867-1.231996 5.04-.182666.608-.727998 1.1467-1.20933 1.612-1.362664 1.32-2.685327 2.708-4.197323 3.8386-1.498663 1.1227-3.155991 2.068-4.83732 2.9067m9.002643 4.852c-.184-.01-.434666-.1507-.529332-.3067-.750665-1.2426-1.945329-1.5146-3.266659-1.6266-.417332-.035-.810664-.34-1.162664-.5.437333-.284.858665-.5547 1.290664-.8334 1.067997-.42 3.445325-1.544 5.802652-3.8146.373331-.2614.74133-.564.922663-.9614 1.56533-1.74 3.021326-4.0346 3.97599-7.0253.125333-.264.252-.5266.377333-.7893.01867-.041-.02133-.1067-.01467-.1573.02533-.212.04667-.4254.06933-.64.198667-.8307.353333-1.7094.467999-2.6374.315999-1.3893.661332-2.7746.814665-4.1813.126666-1.1533-.529332-2.4213-.305333-3.5306.483999-2.3894-.531998-3.9347-2.265327-5.2867.583998-2.868-1.610663-5.8493-4.369322-6.8453-1.411996-.5093-2.43866-2.1-3.622657-3.2187-.092-.087-.01467-.332-.092-.46-.157333-.2613-.314666-.62-.562665-.7213-2.594661-1.068-5.130653-2.4107-7.833313-3.0627-4.771987-1.1493-9.605309-.1053-14.266629.8254-3.246659.6466-6.505317 1.916-9.281309 4-2.154662 1.616-4.465323 3.0546-6.469317 4.8386-1.006664.8987-1.4346633 2.44-3.0666591 2.6667-.167999.024-.337332.264-.447998.4413-1.0106648 1.6147-2.2879947 3.1347-2.9439926 4.8853-1.0306639 2.7467-1.6399958 5.652-2.4266607 8.4893v2.24c.2719999 1.288.5413319 2.5774.8173319 3.8654.3399989 1.58.9959969 2.8413 2.6679927 3.4959.5573319.2187.8453309 1.14 1.2426638 1.7507.279999.432.446665.992.8253309 1.2947.8839979.712 1.8466618 1.336 2.8133261 1.9386 1.02533.6427 2.021327 1.492 3.149325 1.7774 4.497322 1.1373 9.042643 2.0933 13.573298 3.1.247999.055.581332.056.781331-.067 2.177327-1.3427 4.358655-.01 6.425317.2387 2.773325.3306 5.469318 1.5453 8.123978 2.5719 3.117325 1.204 6.351983 1.1414 9.567975 1.1054 2.54266-.025 5.082653-.3987 7.622647-.636 1.829329-.172 3.665323-.484 4.862654-2.0187.405332-.5173.298665-1.4346.423998-2.1693-.633331.095-1.450663-.029-1.875995.3213-3.621323 2.9974-7.790646 1.7707-11.815968 1.6427M169.15743 616.98678c-2.74133.3773-18.62795.7173-20.92395.7173 1.988-3.9373 3.21333-7.5839 5.17999-10.9559 2.02399-3.468 3.52932-7.2387 5.26132-10.8773l.58933-.1014c.57067.792 1.176 1.5627 1.70666 2.38 1.044 1.6053 6.14132 10.7613 7.70532 13.216.60933.9573 1.31599 1.7693 1.59733 2.932.132.5466.636 1.0026 1.19999 1.8346-.77733.2974-1.52266.7467-2.31599.8547m11.82264 9.4093c-.708-.9467-2.164-1.7667-2.2-2.6853-.06-1.516-.62533-2.66-1.29333-3.86-1.48399-2.6667-2.96266-5.336-4.49199-7.9773-1.22399-2.1133-10.1013-20.728-11.55863-23.5733h-.64c-1.10533 1.0267-2.15066 2.1293-3.33733 3.048-.80133.62-1.37733 1.0987-.84133 2.208.12267.256-.18666 1.048-.40133 1.0933-1.69733.356-1.65466 1.7307-1.86933 2.9667-.0707.404-.016.856-.176 1.2173-1.72666 3.912-7.26531 15.8333-7.96665 17.092-1.60133 2.872-3.00799 5.8573-4.67598 8.6879-1.08933 1.8494-1.732 3.9134-3.29733 5.5694-1.56133 1.6533-2.61066 3.7893-3.89066 5.7213 2.31866 1.3693 4.00133.7973 5.04799-1.3453 2-4.0934 4.03332-8.168 6.12265-12.216.28-.5427.89067-1.064 1.464-1.2787 2.32666-.8666 20.06395-.9093 22.69461-.7906 1.116.049 2.14133.2613 2.52399-1.204.39067.1586.82267.192.94533.404.836 1.4533 1.69467 2.9053 2.38266 4.4306 1.212 2.684 2.31866 5.416 3.44666 8.1347.51067 1.2293.94 2.492 1.472 3.7106.19466.444.56933 1.1254.88266 1.1374.59467.023 1.29867-.2347 1.78667-.6014.57333-.4346.87999-1.2146 1.45066-1.6533 1.024-.7853 1.10533-1.6387.42666-2.6173-1.31066-1.8894-2.62799-3.7774-4.00665-5.6187M536.82439 608.97178c-1.87333.1387-3.77199.416-5.62399.2373-1.02133-.099-2.13332-12.5933-2.11199-13.6546.0347-1.7253 1.03733-2.6733 2.74399-2.8227 2.324-.2026 4.64132-.4826 6.96399-.7306 1.29199-.093 6.44131.84 7.42398 1.3373 1.05866.536 2.28798.904 3.10265 1.696.60133.5813 1.00799 1.7787.88533 2.6107-.24667 1.688-.59334 3.4533-2.01599 4.6973-.276.2426-.528.5386-.712.856-2.10666 3.6466-5.63198 4.7653-9.46664 5.36-.40933.063-.78533.3853-1.18933.4133m24.39326 24.1453c-2.29199-1.4214-21.47727-21.9173-21.2826-22.8133 1.24133-.4013 2.66399-.86 4.08532-1.32.99867-.324 2.05066-.5427 2.97599-1.0107 1.05734-.5346 1.92132-1.4346 2.98265-1.972 8.19865-4.1386 7.00399-12.5093 5.29199-13.3053-1.76-.8173-3.63466-1.5253-5.53332-1.888-5.63997-1.076-11.34663-1.208-17.06795-.7613-.15733.011-.328.063-.47066.017-3.10399-.9653-6.06265-.236-8.97465.8187-.44399.1613-.77733.628-1.39333 1.1493 2.06.708 2.188 2.0374 2.244 3.5974.11866 3.2533.428 37.2585-.76 39.7265-.15067.3107-.17067.6867-.35867 1.5027.95067-.4133 1.588-.6413 2.17867-.9573.82799-.4414 1.56666-1.1667 2.43999-1.38 1.97999-.484 2.51066-1.3 2.37066-3.356-.27867-4.0853-.412-8.1813-.53066-12.2747-.0333-1.1493.23466-2.304.28933-3.4586.0547-1.1387.0133-2.28.0133-3.852.888.5533 1.304.7573 1.65866 1.04 1.88667 1.504 19.55994 15.8693 20.63461 19.5159.0827.2854.34933.5414.58533.7507 1.34 1.1867 2.69333 2.3573 4.05066 3.524.10933.093.284.1493.432.156 3.00666.124 5.67865-.8 8.11998-2.684-.73334-.316-1.45867-.3827-2.18-.4707-.60933-.076-1.32533 0-1.80133-.2946M503.79139 611.35178c-.0293-1.2747-.148-2.5453-.17733-3.8187-.02-.9573.356-12.2159.41066-13.7226.036-1.028-.192-2.0893-.47733-3.0853-.068-.24-.908-.5067-1.25466-.38-1.412.5133-2.768 1.1733-4.15599 1.7853 0 1.356-.0573 2.6627.0187 3.9613.0547.9347 1.58267 7.7934.74534 10.3347-.10534.3186-.568.712-.892.7373-2.89866.2307-29.1986-.408-31.17992-.5707.032-2.2973-.0267-12.9693.59333-14.4559.41333-.992-.492-2.392-1.32133-2.0493-1.608.664-3.28798 1.3679-4.58131 2.4746-.56134.4813-.276 1.9933-.308 3.0387-.0213.7426 1.18799 9.4959 1.22533 10.0333.2 2.9093.59733 24.8226-.38667 26.7279-.31333.6053-.616 1.2947-.628 1.9533-.0107.5547.296 1.2227.68267 1.6294.16933.1786.92266-.093 1.35333-.288.87065-.3907 1.69332-.8894 2.55198-1.3094 1.67333-.816 2.03333-1.592 1.75866-3.4386-.15066-1.0173-.73066-16.9973-.76933-18.9453-.02-1.1173.36933-1.8333 1.648-1.8307 1.78266 0 27.67193 1.34 29.28659-.3733.564-.5987 1.22666-.6893 1.52266.3547.14267.5026.40934.992.44 1.5.15467 2.5786-1.09199 19.3613-1.39999 22.2199-.072.6827.088 1.388.14133 2.084.69733-.12 1.54533-.032 2.06666-.4013 1.29333-.9174 2.47333-2.012 3.61866-3.1174.25333-.244.28533-.8466.23333-1.2599-.51333-4.0694-.70533-17.276-.76533-19.788M361.50141 594.80978c.35467.3947-9.90798 17.436-11.67464 19.612-.29066.356-1.27333.6693-1.47866.4866-1.484-1.3146-15.62396-18.9919-16.15329-20.2999-.57734-1.4214-1.56267-2.5654-.50667-4.568-1.188.1266-1.96266.08-2.64666.312-.89733.304-1.70799.8533-2.57999 1.2453-1.26667.568-1.78533 1.592-1.46 2.848.388 1.5027 15.75463 20.244 16.12663 20.6319 1.20133 1.2587 2.75999 2.3227 3.53332 3.8027.9 1.7227.0787 3.728-.27866 5.5973-.10934.5747-.0173 1.1867-.0173 1.78.164.6294-.0947 1.2267-.14933 1.844-.19333 2.1547-.29333 4.3187-.47467 6.4747-.10266 1.2146.436 1.8253 1.62267 1.56 1.69733-.38 3.37332-.8587 5.28932-1.3547-.36934-.644-.28534-13.888-.29467-14.428-.056-2.7946 14.6853-24.3146 16.13996-26.7959.57067-.972.984-2.036 1.50933-3.1413-2.48533-.332-5.65199 1.9413-6.50665 4.3933M314.08141 591.17578c-2.02533.26-19.56927.5027-22.10793.085-3.85866-.6333-12.82931-1.3146-13.44664-1.244-.48.055-.988.025-1.46399-.068-.772-.1506-1.524-.5306-2.292-.5546-1.92266-.06-3.25199 1.216-4.50665 2.4133-.52.496-.63067 1.4187-.92933 2.148.85466.1293 2.00132.668 2.50399.3067 1.27066-.912 2.61333-.712 3.92132-.7307 3.44533-.053 6.89999-.064 10.33864.1267 1.656.092 3.28666.6733 4.70132.984-.50533 1.5613-1.26666 2.8653-1.28933 4.1813-.0707 4.0186.65467 32.1626.35467 36.3972-.084 1.1747.72133 1.3027 1.54533 1.248.49333-.033 1.032-.2333 1.44-.5173.99333-.6907 2.76531-1.5293 2.71998-2.2067-.14267-2.1106-.308-36.0452-.13467-37.5652.0533-.4773.48-1.2773.788-1.3027 1.628-.1346 3.27733-.1586 4.91066-.056 2.91332.1854 5.81598.496 8.72664.7307.30133.025.64-.051.91733-.176 1.20933-.544 2.412-1.1013 3.59466-1.6987 1.14666-.5813 1.84666-2.228 1.32533-3.104-.53333.2054-1.05866.5294-1.61733.6027M205.85143 631.65878c-.36133-1.7653-.468-3.612-.42933-5.4227.0347-1.7253.61466-33.8972.77733-35.4412.12933-1.2307-.84933-1.5987-1.61733-1.3093-1.716.6466-3.33199 1.5693-4.94665 2.456-.176.095-.24934.86-.084 1.0226 1.50533 1.4654 1.83866 34.3639 1.51333 37.4359-.14934 1.4067-1.13067 2.736-1.79467 4.072-.21866.4414-.61733.7947-.93466 1.188.54666.1374 1.11333.444 1.63599.3827 1.83467-.2187 3.648-.736 5.48132-.808 1.60933-.063 25.90926-.196 27.72126-.348.26533-.024.59866-.308.74-.5613.50533-.9107.93999-1.86 1.40266-2.796-1.15866-.4094-29.36258.632-29.46525.1293M252.67342 590.85178c-.71066.34-1.4.8627-2.14399.9653-1.044.1414-1.568.4947-1.49467 1.5854.10534 1.5213.152 3.0466.27467 4.5653.192 2.38-.20133 34.7959-.61467 36.9199-.0627.3227-.064.8347.12267.9827.26533.2066.81866.3253 1.09866.184 1.45067-.7294 2.89733-1.4854 4.24533-2.384.42133-.2814.73599-1.036.73733-1.5747.009-2.176.116-34.9892.24-36.2919.0773-.816.19066-1.6293.29333-2.4427.14933-1.1866.30267-2.372.45333-3.5586-.18666-.077-.37333-.1534-.56133-.2307-.88266.4253-1.76533.856-2.65066 1.28M880.36835 607.50778c-.328.3147-.80533.544-1.25333.6533-3.03199.7414-6.07199 1.444-9.11064 2.1467-.41334.095-.87867.029-1.26.1827-1.756.704-3.51466.4506-5.25599.268-3.39599-2.556-2.62532-15.764-2.47332-17.06.009-.031.0133-.061.0227-.091.18-.5746 1.50533-.9786 2.36266-1.116 1.66-.264 3.35733-.3573 5.04132-.38 1.19867-.017 2.40533.3307 3.60133.284 3.24132-.1306 6.27465.6494 9.39464 1.4427 2.26133.5747 3.37599 2.1147 4.61732 3.5373 1.38799 1.596.92532 3.4947-.51066 5.0107-1.66933 1.76-3.42266 3.4426-5.17599 5.1213m10.88263-6.1187c.44267-.7493.66933-1.6919.684-2.6653.001-.011.004-.02.005-.028-.001 0-.003 0-.004 0 .0213-1.9707-.81733-4.0387-2.48266-4.7893-1.17733-.5347-2.48266-.7867-3.71465-1.2094-.62533-.2173-1.20933-.556-1.83066-.796-.90933-.3506-1.81733-.7293-2.75866-.968-.72266-.1813-1.49866-.1413-2.24533-.244-1.69599-.2346-3.38399-.6773-5.08132-.708-3.43066-.061-6.86665.1467-10.29997.1427-2.78133 0-5.62399-.7653-8.24798.772-.81467.4773-1.57733 1.0413-2.36533 1.5667 6.01732 7.8973 1.99466 40.7679 1.744 42.7319-.0413.3266.04.884.23733.9786.33067.1587.856.16 1.19866.01 1.432-.6534 2.85733-1.3374 4.21599-2.1294.36134-.2106.69734-.8613.66534-1.284-.192-2.6213-.49334-5.2333-.75067-7.7733.14133-.86.408-1.724.40133-2.5853-.0133-2.1067-.192-4.2133-.212-6.3213-.004-.4187.31467-1.108.63733-1.216 1.83733-.6187 3.70133-1.1853 5.59332-1.6053 2.15333-.476 4.39333-.6094 6.50932-1.2 2.68133-.7507 5.29599-1.756 7.89865-2.7547 1.304-.5013 2.76932-.776 3.92132-1.544 1.95732-1.0307 4.91731-3.0653 6.28131-6.3787" fill="#22284e"/>
</svg>
