<svg xmlns="http://www.w3.org/2000/svg" width="448.908" height="489.267" viewBox="0 0 448.90784 489.26694">
    <path d="M 248.12063,462.14338 C 172.1755,472.74328 97.402358,437.32078 97.402358,437.32078 V 176.41606 c 0,-3.64666 2.897332,-6.65332 6.542652,-6.74399 142.99696,-3.55999 265.66597,45.00789 279.67526,134.31567 14.22263,90.66644 -59.55584,147.55564 -135.49964,158.15564 M 93.189039,37.897743 C 161.86886,28.697767 267.97925,16.840467 255.69795,71.241653 243.41664,125.64285 95.995699,141.79214 95.995699,141.79214 Z M 448.38811,298.68109 C 437.5988,155.59878 238.49932,131.9655 238.49932,131.9655 296.93383,104.8309 349.84303,57.765693 329.75375,29.476437 309.66447,1.1871668 115.17698,-7.1234722 56.510469,6.2098268 -2.1560439,19.543127 10.357257,30.877767 26.502548,32.987087 c 16.145291,2.10933 16.674623,39.889236 21.057278,83.535783 4.381322,43.64523 6.409316,174.13157 6.409316,249.91938 0,75.78513 -33.01458,75.32243 -45.0185482,81.41443 -12.0039686,6.092 -15.5519595,25.908 12.6413002,18.948 28.190593,-6.96 112.251696,22.9599 195.011486,22.4559 82.76111,-0.5053 242.5727,-47.4959 231.78473,-190.57949" fill="#bd1c21"/>
</svg>
