<svg xmlns="http://www.w3.org/2000/svg" width="16" height="16" viewBox="0 0 16 16">
    <path d="m 8.914038,15.113014 c -2.4835568,0.34664 -4.9287872,-0.81175 -4.9287872,-0.81175 V 5.7691638 c 0,-0.11926 0.094749,-0.21758 0.2139577,-0.22055 4.676285,-0.11641 8.6878055,1.47185 9.1459375,4.39239 0.465108,2.9649802 -1.947595,4.8253702 -4.431108,5.1720102 M 3.8474669,1.2393338 c 2.2459667,-0.30086001 5.7159875,-0.68861001 5.3143645,1.09041 -0.4016232,1.77903 -5.2225812,2.30715 -5.2225812,2.30715 z m 11.6157161,8.52814 c -0.352832,-4.67908 -6.863781,-5.45194 -6.863781,-5.45194 1.910925,-0.88735 3.641161,-2.42648 2.984201,-3.35159001 -0.656959,-0.92512 -7.0170867,-1.19689 -8.9355983,-0.76087 -1.91851162,0.43603 -1.5093018,0.80670001 -0.9813187,0.87567001 0.5279831,0.069 0.5452933,1.30446 0.6886148,2.73179 0.143278,1.42729 0.2095974,5.69445 0.2095974,8.1728602 0,2.47833 -1.0796424,2.46319 -1.472196,2.66241 -0.39255363,0.19923 -0.50857998,0.84725 0.4133957,0.61964 0.9218884,-0.2276 3.6708536,0.75084 6.3772633,0.73435 2.7064528,-0.0165 7.9326098,-1.55321 7.5798218,-6.2323202"/>
</svg>
