<svg xmlns="http://www.w3.org/2000/svg" width="1088.148" height="553.292" viewBox="0 0 1088.1474 553.29255">
    <path d="M 1086.5493,439.27703 H 479.89882 v -8.80931 H 1086.5493 Z M 716.14274,28.680595 c 0,0 10.8093,75.333135 9.47597,143.332965 -1.33333,67.99983 -1.33333,185.99954 -3.33332,201.33283 -2,15.3333 -6.33864,31.15059 12.0973,22.02128 18.43595,-9.13064 24.06527,-9.01998 24.56927,-24.02127 0.504,-15.0013 -6.66665,-146.6663 -6.66665,-213.3328 0,-66.666496 6.66665,-145.332965 2.66666,-155.3329453 -3.99999,-9.99997 -22.31194,10.9786403 -27.99993,13.9999703 -5.68665,3.02132 -13.03196,4.78932 -10.8093,11.99997 m 91.79669,0 c 0,0 10.80931,75.333135 9.47598,143.332965 -1.33333,67.99983 -1.33333,185.99954 -3.33333,201.33283 -1.99999,15.3333 -6.33865,31.15059 12.0973,22.02128 18.43596,-9.13064 24.06528,-9.01998 24.56928,-24.02127 0.50399,-15.0013 -6.66665,-146.6663 -6.66665,-213.3328 0,-66.666496 6.66665,-145.332965 2.66666,-155.3329453 -3.99999,-9.99997 -22.31195,10.9786403 -27.99993,13.9999703 -5.68666,3.02132 -13.03197,4.78932 -10.80931,11.99997 M 1020.9544,376.01178 c -29.46932,18.94129 -90.99983,16.33329 -100.33314,-9.99998 -9.33331,-26.33326 11.99997,-51.3332 65.99992,-63.99984 35.19722,-8.25597 55.33312,-2.33332 56.33312,14.99997 1,17.33329 7.4694,40.05856 -21.9999,58.99985 m 55.9999,0 c -3.492,-9.08264 -6,-52.99987 -6,-86.33312 0,-33.33325 -7.6667,-67.99983 -53.9999,-78.9998 -42.60529,-10.11464 -88.02783,7.39065 -109.83578,22.97328 -2.55199,1.82399 -2.24799,5.70531 0.53467,7.15331 3.16799,1.648 7.25465,3.63199 11.18664,5.12532 8.11465,3.08133 14.11463,5.41465 18.44795,-2.25199 4.33333,-7.66665 28.99993,-22.66661 57.6666,-19.99995 28.66662,2.66666 43.66652,15.99996 45.99992,31.33325 2.3333,15.3333 6.3333,29.66659 -17,29.66659 -23.3333,0 -121.3331,13.66664 -136.33306,68.33317 -14.99995,54.66653 73.39582,52.21587 103.86374,41.94123 30.46932,-10.27465 51.05192,-15.7773 51.05192,-15.7773 0,0 -4.7226,15.94263 -2.4866,18.88929 2.2373,2.94666 20.7306,-4.96799 27.8185,-8.51065 7.0854,-3.54266 12.5774,-4.45999 9.0854,-13.54263 m -481.33292,-151.555 c 26.78793,0.25733 39.39456,11.61197 45.25988,21.11461 3.45465,5.59599 -0.67467,12.81197 -7.25065,12.81197 H 532.40155 c 0,0 16.99728,-34.37058 63.21983,-33.92658 m 89.3331,123.99969 c -6.22265,-13.7773 -21.77728,20.88928 -55.99985,28.88926 -34.22258,7.99998 -124.88901,4.88799 -111.99971,-94.22243 h 153.3596 c 6.08931,0 10.6373,-5.60132 9.37197,-11.55597 -4.21999,-19.86662 -18.57328,-58.85452 -66.49449,-63.88117 -64.68117,-6.78532 -133.57032,54.99319 -126.90367,118.1037 6.66665,63.11051 72.15448,75.09048 122.07835,69.98916 49.9212,-5.09999 82.81045,-33.54525 76.5878,-47.32255" fill="#22284e"/>
    <path d="M 248.12063,526.16898 C 172.1755,536.76888 97.402358,501.34638 97.402358,501.34638 V 240.44166 c 0,-3.64666 2.897332,-6.65332 6.542652,-6.74399 142.99696,-3.55999 265.66597,45.00789 279.67526,134.31567 14.22263,90.66644 -59.55584,147.55564 -135.49964,158.15564 M 93.189039,101.92334 C 161.86886,92.723364 267.97925,80.866064 255.69795,135.26725 243.41664,189.66845 95.995699,205.81774 95.995699,205.81774 Z M 448.38811,362.70669 C 437.5988,219.62438 238.49932,195.9911 238.49932,195.9911 296.93383,168.8565 349.84303,121.79129 329.75375,93.502034 309.66447,65.212764 115.17698,56.902125 56.510469,70.235424 c -58.6665129,13.3333 -46.153212,24.66794 -30.007921,26.77726 16.145291,2.10933 16.674623,39.889236 21.057278,83.535786 4.381322,43.64523 6.409316,174.13157 6.409316,249.91938 0,75.78513 -33.01458,75.32243 -45.0185482,81.41443 -12.0039686,6.092 -15.5519595,25.908 12.6413002,18.948 28.190593,-6.96 112.251696,22.9599 195.011486,22.4559 82.76111,-0.5053 242.5727,-47.4959 231.78473,-190.57949" fill="#bd1c21"/>
    <path d="m 655.31837,496.21278 v -19.44395 c 0,0 27.98526,-8.48131 27.9546,4.81732 -1.19733,12.74533 -14.84797,17.35733 -22.62128,18.95733 -2.75333,0.5666 -5.33332,-1.52 -5.33332,-4.3307 m 40.8359,34.7839 c -5.86932,-6.3813 -25.18261,-28.5746 -25.18261,-28.5746 0,0 21.29062,-6.652 26.17861,-18.65194 4.88932,-11.99863 -16.30263,-18.80262 -56.7892,-9.7293 0.252,-0.0493 3.128,-0.32934 3.128,12.8853 v 46.64254 c 0,0 0.0853,5.2413 -1.77867,7.064 -1.86532,1.824 5.25332,1.1053 10.47064,-2.2027 5.21866,-3.3066 2.99733,-3.9733 2.99733,-15.0839 v -16.8427 c 0,0 23.77727,18.8427 28.44393,25.2866 4.66665,6.4454 8.40398,9.6387 12.66663,9.556 4.26133,-0.084 14.25064,-2.6666 13.67997,-4.8893 -0.56933,-2.2213 -7.94398,0.9213 -13.81463,-5.46 m 22.33509,-59.0339 c -1.81199,0.81333 -2.63465,2.88666 -1.92399,4.74399 0.91999,2.40666 2.00932,6.71998 2.30266,13.9853 0.53066,13.19461 0.53066,34.70921 -0.0987,40.20661 -0.62933,5.4959 -0.62133,8.6466 1.51866,8.6693 2.13866,0.023 11.61997,-1.0307 11.25464,-7.628 -0.36533,-6.5947 -1.58266,-39.6746 -0.216,-39.9892 1.36533,-0.3147 38.91324,1.1413 41.9359,0.1559 3.02532,-0.98395 8.72264,-6.45193 4.65065,-5.49594 -4.06932,0.95733 -47.10921,4.29733 -47.10921,0.424 0,-3.87599 -1.56267,-9.10531 1.05199,-9.84397 2.616,-0.73733 31.92926,1.45599 34.70125,-0.89467 2.77333,-2.35066 7.73065,-6.22665 3.73066,-5.81065 -3.99999,0.416 -28.44393,1.3 -39.33324,-0.032 -5.80265,-0.708 -9.90131,0.35867 -12.4653,1.50933 m 114.29302,39.093 c -2.17199,1.876 -30.15726,1.416 -30.15726,1.416 l 14.44397,-30.47326 c 0,0 17.88528,27.17996 15.71329,29.05726 m -1.888,-23.81594 c -3.35332,-9.32264 -8.43997,-18.72795 -11.93997,-18.89462 -3.49999,-0.16667 -7.83331,7.33332 -9.66664,11.8333 -1.83333,4.49999 -28.07325,57.99586 -31.78658,60.24656 0,0 8.53332,3.4786 10.99331,-1.052 2.45999,-4.528 7.75865,-20.48 13.60796,-21.672 5.85198,-1.1893 34.09991,-1.672 34.81058,-0.097 0.70799,1.5746 8.57864,23.0253 10.72664,23.5493 2.14799,0.5253 11.23997,-2.832 10.9453,-5.6534 -0.29733,-2.8213 -24.33727,-38.9385 -27.6906,-48.25984 m 116.62699,-13.40236 c 0,0 3.34399,2.31066 4.60266,18.7426 1.25866,16.4306 1.16266,36.2653 -0.67067,40.7653 -1.83333,4.4999 0,5.4999 4.16666,6.3333 4.16665,0.8333 43.99989,0.6666 49.99991,0.5 6,-0.1667 7.9507,-1.304 10,-2.8334 2.0493,-1.5306 3.4147,-4.7426 -2.876,-4.0373 -6.2906,0.704 -40.69463,5.3693 -47.3266,-0.6293 -1.79733,-14.3333 -1.77867,-38.9492 -1.77867,-38.9492 0,0 41.40127,-1.0894 45.02397,-0.7374 3.624,0.3534 8.8013,-5.85597 5.5466,-5.75197 -3.256,0.10534 -37.42394,3.48666 -50.25723,0.62933 -0.99867,-7.52398 0.31599,-11.52397 0.31599,-11.52397 0,0 27.51862,3.16666 32.68532,0 5.16662,-3.16666 10.66662,-5.32932 5.53462,-5.64532 -5.13332,-0.31333 -23.86531,2.4 -35.90927,1.044 -12.04531,-1.35733 -13.98797,-1.08 -19.05729,2.09333 m -19.684,59.882 c 0,0 11.58397,-5.4307 12.35064,-1.9853 0.76666,3.444 -0.9,5.1106 -8.73332,6.2773 -7.83331,1.1667 -27.82926,8 -45.08122,0 -17.25194,-8 -24.25193,-25.9999 -20.9186,-41.6666 3.33332,-15.6666 25.16659,-27.66657 51.16653,-26.83324 14.99996,2 14.55996,4.11999 12.05197,5.89999 -2.508,1.77866 -8.70131,2.65332 -11.05197,0.93333 -2.35067,-1.72 -17.83329,-4.99999 -30.99993,4.66665 -13.16662,9.66664 -17.31061,31.04657 -2.12798,45.17727 15.18262,14.1279 32.89324,12.4053 43.34388,7.5306 m -452.12195,-5.23 c 2.90399,-5.3773 5.30532,-2.2227 10.93864,2.0933 5.63465,4.3187 21.93728,13.724 34.34125,1.4654 12.40397,-12.2587 6.62665,-22.48 -3.15066,-24.48 -9.77864,-2 -33.76125,-1.0266 -32.54659,-19.06927 1.21333,-18.04262 28.6506,-18.65195 39.15457,-18.01462 10.50264,0.63867 7.61332,6.63865 1.16933,7.08398 -6.44398,0.444 -6.88931,-6.22265 -16.22262,-2.44532 -9.33331,3.77865 -18.66662,14.44529 -10.22131,20.22263 8.44398,5.7773 42.16389,1.5186 41.96923,21.3146 -0.192,19.7959 -28.59327,29.4039 -54.28253,22.8213 -11.01998,-3.0254 -14.16797,-5.404 -11.14931,-10.992 m 546.99801,0 c 2.904,-5.3773 5.3053,-2.2227 10.9386,2.0933 5.6347,4.3187 21.9373,13.724 34.3413,1.4654 12.4053,-12.2587 6.6266,-22.48 -3.1507,-24.48 -9.7773,-2 -33.7612,-1.0266 -32.5466,-19.06927 1.2134,-18.04262 28.6506,-18.65195 39.1546,-18.01462 10.5027,0.63867 7.6147,6.63865 1.1693,7.08398 -6.4439,0.444 -6.8879,-6.22265 -16.2213,-2.44532 -9.3333,3.77865 -18.6666,14.44529 -10.2226,20.22263 8.444,5.7773 42.1639,1.5186 41.9706,21.3146 -0.1934,19.7959 -28.5946,29.4039 -54.2826,22.8213 -11.0213,-3.0254 -14.1693,-5.404 -11.1506,-10.992 m -464.89402,-48.52 c -1.48266,-1.79066 -0.80266,-4.49466 1.35066,-5.37465 5.86799,-2.39866 17.31729,-6.57599 15.9013,-2.016 -1.89333,6.09865 -12.33864,15.7533 -12.33864,33.81455 0,18.0613 6.38132,32.3346 22.96794,29.4213 16.58796,-2.9147 28.1746,-16.6906 28.26927,-21.3586 0.096,-4.668 -1.20933,-33.86393 -1.20933,-33.86393 0,0 -5.34132,-3.428 -2.69466,-4.35866 2.64666,-0.93066 15.17062,-10.31464 16.36262,-4.49066 1.19333,5.82399 -1.67866,23.82795 -1.46533,40.82525 0.21467,16.9986 4.27332,22.3319 1.46533,24.5533 -2.80666,2.2226 -11.36664,5.5813 -13.08663,4.3466 -1.72,-1.2347 -0.108,-13.4026 -0.108,-13.4026 0,0 -24.75327,20.1119 -48.29321,14.1399 -23.54127,-5.9719 -12.46131,-49.3545 -5.77866,-60.88514 -0.52533,-0.44133 -0.96799,-0.89866 -1.34266,-1.35066" fill="#22284e"/>
</svg>
