<svg xmlns="http://www.w3.org/2000/svg" width="20" height="20" viewBox="0 0 30 30">
  <path d="M3 0h24c1.656 0 3 1.343 3 3v24c0 1.657-1.344 3-3 3H3c-1.657 0-3-1.343-3-3V3c0-1.657 1.343-3 3-3z" fill-rule="evenodd" clip-rule="evenodd" fill="#111111"/>
  <path d="M25.166 8.887c-.736.32-1.525.54-2.355.637.85-.5 1.5-1.293 1.806-2.237-.793.463-1.67.8-2.605.98-.75-.785-1.814-1.276-2.994-1.276-2.266 0-4.104 1.814-4.104 4.047 0 .316.037.625.107.92-3.41-.167-6.435-1.778-8.458-4.224-.355.598-.556 1.293-.556 2.034 0 1.403.725 2.64 1.824 3.366-.672-.02-1.305-.203-1.857-.506v.05c0 1.96 1.416 3.594 3.293 3.966-.346.092-.707.142-1.082.142-.263 0-.52-.025-.77-.072.52 1.606 2.037 2.775 3.834 2.808-1.404 1.086-3.174 1.73-5.098 1.73-.33 0-.656-.02-.98-.055 1.817 1.147 3.974 1.817 6.292 1.817 7.547 0 11.674-6.162 11.674-11.506 0-.176-.003-.35-.01-.523.8-.57 1.497-1.28 2.046-2.092z" fill="#fff"/>
  <path d="M150.333 0h24c1.657 0 3 1.343 3 3v24c0 1.657-1.343 3-3 3h-24c-1.657 0-3-1.343-3-3V3c0-1.657 1.343-3 3-3z" fill-rule="evenodd" clip-rule="evenodd" fill="#111111"/>
  <path d="M167.12 30V19.508h3.54l.528-4.088h-4.067v-2.61c0-1.185.33-1.99 2.04-1.99l2.174-.002V7.16c-.376-.048-1.667-.16-3.17-.16-3.136 0-5.282 1.906-5.282 5.405v3.016h-3.546v4.09h3.547V30h4.24z" fill="#fff"/>
  <path d="M263.666 0h24c1.657 0 3 1.343 3 3v24c0 1.657-1.343 3-3 3h-24c-1.657 0-3-1.343-3-3V3c0-1.657 1.343-3 3-3z" fill-rule="evenodd" clip-rule="evenodd" fill="#111111"/>
  <path d="M268.43 22h3.317V11.313h-3.317V22zm1.66-16c-1.064 0-1.924.863-1.924 1.926s.86 1.926 1.923 1.926c1.06 0 1.92-.863 1.92-1.926S271.146 6 270.09 6zm10.1 5.046c-1.613 0-2.695.886-3.138 1.726h-.045v-1.46h-3.18V22h3.313v-5.287c0-1.395.264-2.745 1.988-2.745 1.7 0 1.724 1.594 1.724 2.834V22h3.312v-5.862c.002-2.88-.618-5.092-3.974-5.092z" fill="#fff"/>
</svg>
