<svg xmlns="http://www.w3.org/2000/svg" height="65.5" viewBox="0 0 173.105 65.5" width="173.105" clip-rule="evenodd" fill-rule="evenodd" image-rendering="optimizeQuality" shape-rendering="geometricPrecision" text-rendering="geometricPrecision">
    <rect height="65.5" width="173.105" ry="9.134" fill="#c21800" stroke-width=".09"/>
    <path d="m 110.05107,12.996805 c -0.099,-0.1794 -0.1869,-0.364 -0.2649,-0.5512 -0.6974,-1.6739 -0.5334,-3.3046001 0.3327,-4.7905801 0.6024,-1.03255 1.5512,-1.91023 2.7537,-2.56889 0.3281,-0.17967 0.6372,-0.33026 0.9227,-0.44912 l 0.172,-0.0627 c 1.5137,-0.54973 2.8775,-0.99134 4.2067,-1.34964 1.3556,-0.36557 2.7328,-0.66294 4.2532,-0.919 l 0.5005,-0.0468 c 2.0594,-0.082 3.5671,0.47565 4.6701,1.41808 1.3285,1.13557 1.8515,2.56784 1.9018,4.08781 0.4027,4.5050401 0.677,8.9747401 0.9212,13.3213401 l 2.648,-3.6311 0.4535,-0.5317 c 0.087,-0.084 0.2168,-0.1937 0.3825,-0.3246 v -0.016 c 1.098,-0.8635 2.5478,-1.2627 4.0257,-1.0708 1.2491,0.1621 2.5308,0.7417 3.5748,1.8218 0.1261,0.1309 0.239,0.2552 0.3367,0.3709 0.9186,0.9785 1.9434,2.3533 2.8024,3.7211 0.9205,1.466 1.7103,3.0342 2.071,4.2663 v 4e-4 c 0.071,0.2269 0.1177,0.3996 0.1437,0.5225 v 0.016 c 0.3244,1.538 0.042,2.9231 -0.628,4.0585 -0.7069,1.1981 -1.8073,2.0334 -3.0739,2.435 -0.096,0.031 -0.2268,0.064 -0.3959,0.1022 v 0 l -2.9,0.7348 3.4415,1.1763 v 0 c 0.1341,0.041 0.3027,0.1034 0.4997,0.1854 1.3559,0.5645 2.3972,1.6376 2.9408,3.0232 0.4522,1.151 0.5366,2.5132 0.1103,3.9145 -0.08,0.265 -0.1536,0.4777 -0.2157,0.6266 h -0.01 c -0.4934,1.245 -1.3348,2.6808 -2.2983,3.9929 -0.8901,1.2119 -1.9451,2.3991 -2.9818,3.3053 -0.1068,0.1067 -0.2249,0.2158 -0.3525,0.3267 -1.1444,0.9938 -2.5167,1.4614 -3.7953,1.5124 -1.5078,0.06 -2.9763,-0.472 -4.0038,-1.4363 -0.1087,-0.1022 -0.226,-0.2256 -0.3519,-0.3704 l -0.4067,-0.5473 -1.9439,-3.2233 v 3.7928 l -0.047,0.6882 c -0.024,0.1386 -0.064,0.305 -0.119,0.5012 -0.3804,1.3508 -1.3231,2.5332 -2.6396,3.2532 -1.1,0.6019 -2.4687,0.8874 -3.9368,0.6312 v 0 c -0.1415,-0.025 -0.2878,-0.056 -0.4385,-0.094 -1.333,-0.2483 -3.0003,-0.7632 -4.5249,-1.373 -1.0005,-0.3998 -1.983,-0.8616 -2.8261,-1.3415 h -3.7919 c -0.3281,0.2517 -0.6823,0.4562 -1.062,0.6144 -0.553,0.2294 -1.1316,0.3449 -1.7308,0.3449 -0.6056,0 -1.186,-0.118 -1.7431,-0.3551 -0.3667,-0.1556 -0.7076,-0.3574 -1.0231,-0.6042 h -1.0437 c -1.934,2.0049 -4.8617,3.3505 -9.283903,3.2085 -0.099,0 -0.1978,-0.01 -0.2965,-0.014 v 0.7166 c 0,3.0334 -1.8017,4.9689 -4.1076,5.8096 -0.7766,0.2832 -1.5886,0.4248 -2.3742,0.4248 -0.7848,0 -1.5969,-0.1416 -2.374,-0.4248 -2.3058,-0.8412 -4.1071,-2.7762 -4.1071,-5.8096 v -2.5219 c -0.6786,0.6727 -1.5167,1.1743 -2.4341,1.5049 -0.7861,0.2836 -1.5966,0.4252 -2.3706,0.4252 -0.7738,0 -1.5844,-0.1416 -2.3704,-0.4252 -1.7865,-0.644 -3.2724,-1.9356 -3.8647,-3.878 -1.1043,1.3029 -2.5181,2.3751 -4.2894,3.1378 -1.7504,0.7539 -3.8624,1.189 -6.38666,1.2143 -5.79725,0.055 -9.0989,-2.6446 -10.97531,-6.0844 -0.44714,-0.8199 -0.7962,-1.6718 -1.06831,-2.5253 l -2.19316,7.0865 c -0.77683,2.5095 -2.02597,4.355 -3.86857,5.6276 -1.79505,1.2396 -3.95096,1.7821 -6.58758,1.7177 -0.96919,-0.023 -1.79668,-0.148 -2.49873,-0.3479 -1.71268,-0.4881 -2.91254,-1.4145 -3.71499,-2.5308 -0.86844,-1.2081 -1.19327,-2.5536 -1.1627,-3.8064 0.0145,-0.605 0.10062,-1.1613 0.2392,-1.6475 0.46355,-1.6253 1.38727,-2.7714 2.55886,-3.5566 0.54743,-0.367 1.12672,-0.6311 1.7173,-0.8115 l -6.79656,-13.9275 c -0.10605,-0.2177 -0.20668,-0.4564 -0.3013,-0.7144 -0.64378,-1.7543 -0.53981,-3.4752 0.0669,-4.9478 0.62555,-1.5183 1.77752,-2.7281 3.19963,-3.4219 0.18083,-0.089 0.38681,-0.1752 0.61748,-0.2597 1.45764,-0.5351 2.98074,-0.6601 4.42234,-0.2332 1.55919,0.4623 2.8516,1.4588 3.69305,3.1127 l 1.62082,3.1862 0.73863,-2.439 c 0.0553,-0.1827 0.12255,-0.3587 0.20044,-0.527 0.0439,-0.1098 0.0904,-0.2169 0.1394,-0.3215 0.80302,-1.7129 2.17875,-2.7578 3.74856,-3.2446 1.33463,-0.4135 2.79391,-0.386 4.072,9e-4 0.17102,0.052 0.3358,0.1138 0.49435,0.1854 0.15267,0.058 0.30233,0.1224 0.44865,0.1909 1.07675,0.5047 2.08331,1.3082 2.78883,2.3623 2.10155,-1.8399 4.88842,-2.8711 8.47543,-3.0022 0.30163,-0.011 0.62024,-0.013 0.95338,-0.01 4.04952,0.08 7.02732,1.5968 9.08052,4.1684 0.1,0.1253 0.1971,0.253 0.2919,0.3826 v -5.4546 c 0,-3.0376 1.8158,-4.9718 4.1404,-5.8099 0.7859,-0.2833 1.5963,-0.4248 2.3703,-0.4248 0.7742,0 1.5844,0.1415 2.3704,0.4248 2.3243,0.8379 4.1407,2.7726 4.1407,5.8099 v 2.503 c 0.5576,-0.5566 1.2218,-0.9974 1.9481,-1.321 0.7921,-0.3529 1.6563,-0.5442 2.517,-0.5726 0.8376,-0.028 1.6963,0.1034 2.5023,0.3931 0.3706,0.1333 0.7288,0.2961 1.0686,0.4886 1.2803,-0.4977 2.647,-0.7598 4.0205,-0.7947 1.9264,-0.049 3.875403,0.3523 5.614503,1.1783 1.5205,0.722 2.7125,1.654 3.6466,2.7211 0.023,-0.1186 0.047,-0.2346 0.072,-0.347 0.02,-0.1062 0.046,-0.2269 0.078,-0.3616 0.3471,-1.5209 1.2009,-2.7042 2.237,-3.4877 l -0.01,-0.01 c 1.1795,-0.8887 2.641,-1.2774 3.985,-1.112 v 0 c 0.1479,0.018 0.3202,0.05 0.5173,0.095 l 0.5944,0.1876 3.8594,1.5546 c -2.5452,-3.9887 -5.0571,-7.9325 -7.2741,-11.6914 l -0.063,-0.1096 z" fill="#fefefe" fill-rule="nonzero" stroke-width=".098"/>
    <path d="m 113.55467,11.073205 c -0.5741,-1.0483 0.2169,-2.0968001 1.7735,-2.7453301 2.7352,-0.9933 5.0208,-1.62035 7.7563,-2.081 1.8802,-0.0749 2.4224,0.73598 2.4312,1.73032 0.5159,5.7379101 0.8322,11.7754101 1.1485,17.5129101 0.075,2.2639 -2.1982,2.9297 -3.4719,0.9988 -3.2791,-5.1717 -6.5583,-10.1939 -9.6376,-15.4157 z m -1.5119,15.8769 c -0.7628,-0.1741 -1.8342,0.4676 -1.9894,1.7296 -0.4935,2.1115 -0.5968,5.9096 -0.1291,7.6734 0.2889,1.1974 1.3353,1.5559 2.1468,1.2726 l 9.2489,-2.862 c 2.101,-0.6089 2.099,-3.4521 -0.052,-4.0971 l -9.2268,-3.7166 z m 14.4669,22.8872 c -0.1345,0.7706 -1.1021,1.4183 -2.326,1.0734 -2.1381,-0.362 -5.6803,-1.7359 -7.1258,-2.8495 -0.9924,-0.7297 -0.9571,-1.7412 -0.3815,-2.3799 l 6.3015,-7.4944 c 1.5239,-1.8018 3.7727,-0.9847 3.5358,1.6461 v 10.0043 z m 9.3585,-2.6341 c 0.5131,0.5909 1.826,0.6462 2.6962,-0.2809 1.6944,-1.4134 3.6697,-4.1186 4.3831,-5.9685 0.4733,-1.1371 0.021,-2.1351 -0.8016,-2.3854 l -9.2656,-3.1668 c -2.0553,-0.7482 -3.5332,1.4459 -2.1787,3.235 z m 0.4227,-27.4022 c 0.5626,-0.5437 1.726,-0.4972 2.5119,0.5023 1.5148,1.5517 3.5687,4.748 4.0811,6.4994 0.3723,1.1743 -0.2519,1.9707 -1.0929,2.1482 l -9.4569,2.3959 c -2.1129,0.5661 -3.4434,-1.7986 -1.938,-3.4627 z" fill="#c41200" stroke-width=".098"/>
    <path d="m 80.730967,23.678305 v 25.5053 c 0,2.9747 -5.0145,2.9753 -5.0145,0 v -25.5053 c 0,-2.9753 5.0145,-2.9746 5.0145,0 z" fill="#181512" stroke-width=".098"/>
    <path d="m 49.836397,31.520905 -6.57697,21.2504 c -1.00578,3.25 -2.99932,4.6169 -6.54629,4.5303 -3.24025,-0.078 -3.74279,-1.9899 -3.38368,-3.2497 0.39511,-1.386 1.5517,-1.7976 2.6837,-1.7988 2.00704,0 2.32611,0.021 2.83038,-1.5535 -0.0104,-0.9585 -0.54466,-1.9289 -0.87873,-2.6133 l -7.40607,-15.1766 c -0.84768,-1.7374 0.009,-3.3419 1.36188,-3.8385 1.30037,-0.4773 2.53727,-0.3104 3.17343,0.94 l 6.13283,12.0567 3.62416,-11.9663 c 0.48592,-1.6043 2.31583,-1.8543 3.58263,-1.2603 0.98511,0.4618 1.78802,1.4348 1.40272,2.6796 z" fill="#181512" stroke-width=".098"/>
    <path d="m 105.26087,38.939305 c 0.051,2.2716 0.6747,12.687 -8.848103,12.381 -1.5093,-0.049 -3.1356,-0.8611 -4.1436,-1.7795 -0.1551,0.5888 -0.2816,1.2279 -0.2816,2.0867 v 4.3829 c 0,2.974 -4.9557,2.9752 -4.9557,0 v -25.5055 c 0,-2.9105 4.5724,-2.9723 4.7711,-0.189 0.4287,-0.3359 0.9375,-0.666 1.4479,-0.961 2.2185,-1.2831 5.1062,-1.3022 7.450203,-0.1891 4.1548,1.9734 4.5598,6.4829 4.5598,9.7735 z m -9.650503,6.4448 c -1.7226,-2.1635 -1.4994,-8.8121 -0.044,-11.132 1.0803,-1.7221 4.765603,-1.8182 5.768403,0 1.3092,2.3745 1.5309,8.9357 -0.158,11.0934 -1.240903,1.5855 -4.345503,1.5715 -5.566203,0.038 z" fill="#181512" stroke-width=".098"/>
    <path d="m 70.365567,39.175705 c 0.01,0.4615 0.177,2.5281 -1.1233,2.7338 l -10.45931,0.017 c -0.9062,0.034 -1.17609,0.3418 -1.04858,1.1845 0.17736,0.995 0.521,1.833 0.97288,2.4006 1.22006,1.5324 3.75075,1.7211 5.96651,0.4345 1.1718,-0.957 1.7894,-1.6026 2.4385,-1.8193 1.4239,-0.475 2.6483,0.8509 2.6734,2.2093 0.01,0.5911 -0.166,1.1001 -0.4383,1.6695 -1.4624,2.0727 -4.0141,3.433 -8.06626,3.4739 -7.96041,0.077 -8.89937,-7.1092 -8.94738,-10.9377 -0.0921,-7.3664 2.45512,-11.719 9.19398,-11.9653 6.43686,-0.2375 8.96556,4.1949 8.83786,10.5993 z m -5.2205,-1.4068 c -0.1626,-2.329 -0.8753,-4.7225 -4.34252,-4.6398 -2.72767,0.065 -4.2294,1.8647 -4.46838,4.3113 0.0534,0.5362 0.1793,0.5541 0.8508,0.5274 h 7.4395 c 0.3708,0 0.4939,-0.011 0.5206,-0.1989 z" fill="#181512" stroke-width=".098"/>
    <path d="m 109.15047,47.894405 v 0.4956 h 0.2226 c 0.1271,0 0.2196,-0.019 0.2788,-0.057 0.058,-0.039 0.088,-0.1 0.088,-0.1835 0,-0.088 -0.03,-0.1516 -0.091,-0.193 -0.061,-0.041 -0.1574,-0.062 -0.2896,-0.062 z m -0.3377,-0.2125 h 0.6065 c 0.219,0 0.3853,0.036 0.498,0.1081 0.1128,0.072 0.1693,0.1783 0.1693,0.3189 0,0.1153 -0.03,0.2105 -0.091,0.2858 -0.06,0.076 -0.1473,0.1249 -0.26,0.1489 l 0.3513,0.714 h -0.3777 l -0.313,-0.6588 h -0.2454 v 0.6588 h -0.3377 z m 0.5747,-0.3797 c -0.1633,0 -0.315,0.029 -0.4549,0.087 -0.1398,0.057 -0.2662,0.1424 -0.379,0.2544 -0.116,0.1186 -0.2052,0.2514 -0.2677,0.3978 -0.063,0.1465 -0.094,0.2987 -0.094,0.4562 0,0.1581 0.031,0.3083 0.089,0.4522 0.059,0.1431 0.146,0.2715 0.2578,0.3855 0.1136,0.1146 0.2424,0.2027 0.3863,0.2649 0.1439,0.062 0.2916,0.093 0.4432,0.093 0.1644,0 0.32,-0.03 0.4671,-0.089 0.147,-0.06 0.2791,-0.1464 0.3966,-0.2619 0.1127,-0.108 0.1987,-0.2337 0.2596,-0.3757 0.06,-0.142 0.091,-0.2922 0.091,-0.4495 0,-0.1678 -0.029,-0.3245 -0.086,-0.4691 -0.057,-0.1444 -0.1426,-0.274 -0.2546,-0.3888 -0.1174,-0.1166 -0.2488,-0.2046 -0.3934,-0.2655 -0.1444,-0.06 -0.2979,-0.091 -0.4605,-0.091 z m 0,-0.2106 c 0.1936,0 0.3764,0.035 0.5474,0.1064 0.1717,0.071 0.3245,0.1755 0.4587,0.3136 0.1308,0.1313 0.23,0.2809 0.2986,0.4488 0.068,0.168 0.1025,0.3462 0.1025,0.5353 0,0.1936 -0.035,0.3751 -0.1056,0.5447 -0.07,0.1698 -0.1724,0.3194 -0.3064,0.4503 -0.1368,0.1329 -0.291,0.2347 -0.462,0.3058 -0.1704,0.071 -0.3487,0.1063 -0.5332,0.1063 -0.1866,0 -0.3654,-0.036 -0.537,-0.1094 -0.1711,-0.073 -0.3241,-0.1776 -0.4588,-0.3143 -0.1328,-0.134 -0.2338,-0.2857 -0.3041,-0.4535 -0.069,-0.1684 -0.1041,-0.3453 -0.1041,-0.5299 0,-0.1865 0.036,-0.3661 0.1096,-0.5398 0.073,-0.1736 0.1775,-0.3283 0.3141,-0.4652 0.1314,-0.132 0.28,-0.2312 0.4452,-0.2987 0.165,-0.066 0.3433,-0.1004 0.5351,-0.1004 z" fill="#181512" fill-rule="nonzero" stroke-width=".098"/>
</svg>
